<svg height="100" width="497" xmlns="http://www.w3.org/2000/svg"><path d="M475.655 12.392c0-5.582 4.526-10.15 10.112-10.15 2.673 0 5.18 1.083 7.08 2.974a10.213 10.213 0 0 1 2.921 7.176c0 2.691-1.022 5.272-2.92 7.149-1.9 1.924-4.408 2.999-7.08 2.999-5.587 0-10.113-4.549-10.113-10.148zm-.855 0c0 6.075 4.923 11.018 10.967 11.018 2.923 0 5.62-1.139 7.707-3.224 2.08-2.095 3.193-4.84 3.193-7.794 0-2.955-1.113-5.704-3.193-7.8-2.088-2.071-4.784-3.224-7.707-3.224-6.044.001-10.967 4.947-10.967 11.024zm6.866 6.49h1.53V13.76h3.47c.598 0 1.034.044 1.358.204.506.293.78.792.803 1.593l.14 2.003c0 .456.011.771.011.93.08.159.137.294.149.394h1.934v-.282c-.248-.086-.359-.336-.505-.726-.076-.21-.076-.552-.092-1.004l-.067-1.606c0-.691-.156-1.223-.347-1.504-.238-.307-.628-.577-1.072-.759.518-.25.914-.657 1.237-1.099.265-.475.416-1.03.416-1.74 0-1.37-.527-2.318-1.596-2.832-.56-.27-1.303-.394-2.143-.394h-5.225v11.944zm1.53-6.49V8.306h3.696c.54 0 .978.09 1.293.25.525.305.862.882.862 1.73 0 .815-.22 1.358-.65 1.674-.405.296-.965.432-1.664.432zM44.986 27.565L0 97.695h30.748L73.992 30.65zm185.013-1.573V0h-87.431c-11.892.747-17.095 6.393-20.994 10.468-4.157 4.325-6.52 13.43-6.52 13.43V.17H68.642c-3.505 0-6.841 1.482-9.362 4.959-2.63 3.437-13.248 20.864-13.248 20.864zm237.734.02V0h-93.547c-11.856.747-17.088 6.393-20.993 10.468-4.16 4.325-6.5 13.43-6.5 13.43v2.094zM260.703.126h-26.139v25.867h26.141V.125zm85.802 0H320.39v25.867h26.115zm0 35.203L320.828 33.8v30.008s-.077 8.644-8.465 8.644H268.23s-7.473-.61-7.473-8.564v-34.16l-25.936-1.87v46.02c4.192 22.073 24.196 23.774 24.196 23.774s2.036.137 2.368.17h59.612s25.51-2.048 25.51-26.447l-.001-36.047zM88.522 97.71h122.263c21.295-4.255 23.52-23.516 23.52-23.516 1.001-5.724.416-10.355.416-10.355-.64-3.857-8.003-20.896-23.985-22.38-9.529-.884-94.344-7.593-94.344-7.593 1.641 8.468 5.464 12.742 8.004 15.187 5.888 5.634 15.258 7.23 15.258 7.23 2.261.214 65.366 5.419 65.366 5.419 2.01.103 5.82.612 5.775 5.577 0 .603-.553 4.979-5.394 4.979h-91.459V33.65l-25.42-1.853zm258.171.224h93.538c23.464-1.347 26.78-23.524 26.78-23.524.83-5.827.146-10.57.146-10.57-.674-5.25-8.17-21.02-24.171-22.55-9.475-.882-94.772-5.893-94.772-5.893 2.529 8.736 5.921 11.381 8.484 13.802 5.903 5.658 14.747 7.015 14.747 7.015 2.225.179 66.03 5.487 66.03 5.487 2.06.103 6.161.32 6.161 5.274 0 1.493-.765 3.042-1.711 3.89 0 0-2.255 1.234-4.348 1.234h-90.824z" fill="#777"/></svg>