<svg height="100" width="790" xmlns="http://www.w3.org/2000/svg"><path d="M754.648 2.67h-5.818V.322h14.307V2.67h-5.808v16.28h-2.68zM765.837.322h4.43l5.885 15.452L781.916.322h4.415v18.629h-2.682V2.838h-.043l-6.188 16.113h-2.654l-6.178-16.113h-.053v16.113h-2.696zM116.32 0h26.654v99.432H116.32zm184.16.083h32.695L371.747 100H342.5l-7.463-21.317h-37.57L289.567 100h-27.1zm16.343 20.61h-.28l-12.915 39.085h25.097zM384.726.073h46.046c18.632 0 32.553 8.15 32.553 25.327 0 12.618-6.451 19.64-17.634 23.348v.279c13.317 2.737 20.216 9.888 20.216 22.07 0 23.905-21.082 28.902-39.004 28.902h-42.177zm26.666 81.052h7.909c9.747 0 19.926-1.448 19.926-11.603 0-10.894-10.468-11.88-19.634-11.88h-8.2v23.484zm0-41.529h7.465c8.755 0 17.778-2.149 17.778-10.6 0-9.168-8.589-10.007-17.476-10.007h-7.767zm90.626 22.764L465.028.073h30.68l19.657 40.087L534.723.073h30.704L528.693 62.36V100h-26.675zm99.041-42.532h-24.653V.073h76.005v19.755h-24.652v80.17h-26.7zM665.108.073h70.562V18.99h-43.898v20.606h41.45v18.892h-41.45v22.637h45.464V100h-72.128zM55.747 21.948C38.003 23.42 28.315 35.05 28.315 50.1c0 14.63 13.581 26.93 26.697 26.93l2.882-.028h4.849s3.217 0 3.239-3.13V42.47H93.37c0 17.726-.067 57.531-.067 57.531s-27.035-.023-42.73-.023C21.059 99.977 0 75.637 0 50.099 0 22.476 22.906-.593 51.429.428l40.974.13-.023 21.392H55.747zm158.505 0c-17.755 1.472-27.423 13.1-27.423 28.151 0 14.63 13.561 26.93 26.688 26.93l2.872-.028h4.86s3.193 0 3.215-3.13V42.47h27.346c0 17.726-.043 57.531-.043 57.531s-27.011-.023-42.698-.023c-29.503 0-50.54-24.34-50.54-49.878 0-27.623 22.884-50.692 51.419-49.671l40.905.13-.01 21.392h-36.591z" fill="#777"/></svg>