<svg height="100" width="644" xmlns="http://www.w3.org/2000/svg"><mask id="a" fill="#fff"><path d="M.457.017H640.06v90.444H.457z" fill-rule="evenodd"/></mask><g fill="#777"><path d="M505.022 6.478l-25.605 41.218-25.634-41.218H427.3l39.87 61.892V96.9h22.69V67.848l39.936-61.37zM298.009 6.478l-48.6 45.274L297.848 96.9h30.265l-48.435-45.148 48.596-45.274zM103.213 6.478h22.704V96.9h-22.704z"/><g mask="url(#a)" transform="matrix(1 0 0 -1 0 96.913)"><path d="M333.522-.13h71.774c12.545 0 20.737 6.85 20.737 21.417v12.597c0 12.749-6.57 21.418-20.737 21.418H351.64v16.912h69.23V90.44h-70.717c-12.786 0-20.558-7.222-20.558-21.417V57.755c0-12.344 7.071-20.758 20.558-20.758h53.844V18.13h-70.475zM531.39-.13h75.692c12.54 0 20.746 6.85 20.746 21.417v12.597c0 12.749-6.579 21.418-20.746 21.418h-53.666v16.912h69.224V90.44H551.93c-12.777 0-20.554-7.222-20.554-21.417V57.755c0-12.344 7.082-20.758 20.554-20.758h53.849V18.13H531.39zM.452-.13h88.935v18.26H23.139v72.31H.452zM143.804-.13h20.705v64.49L232-.13h14.23v90.57H225.51V36.156l-56.796 54.282h-24.909z"/></g><path d="M640.06 6.44h-1.192l-2.145 4.706h-.034l-2.096-4.706H633.4v6.28h.946V8.193h.053l1.995 4.525h.551l2.053-4.525h.043v4.525h1.02zm-7.477.943h-1.96v5.336h-1.035V7.383h-1.937V6.44h4.932z"/></g></svg>