<svg height="100" width="429" xmlns="http://www.w3.org/2000/svg"><mask id="a" fill="#fff"><path d="M0 0h425.731v99.143H0z" fill-rule="evenodd"/></mask><path d="M417.948 4.68h-1.638v3.063h1.638c.98 0 1.663-.636 1.663-1.517 0-.885-.682-1.546-1.663-1.546zm1.712 7.677l-2.018-3.575h-1.332v3.575h-1.216V3.595h2.984c1.533 0 2.77 1.148 2.77 2.63 0 1.28-.79 2.071-1.877 2.403l2.11 3.729zm-1.951-11.189c-3.733 0-6.743 3.067-6.743 6.817 0 3.756 3.01 6.823 6.743 6.823 3.72 0 6.764-3.067 6.764-6.823 0-3.75-3.045-6.817-6.764-6.817zm0 14.812c-4.44 0-8.03-3.581-8.03-7.995 0-4.41 3.59-7.985 8.03-7.985 4.433 0 8.022 3.574 8.022 7.985 0 4.414-3.59 7.995-8.022 7.995zM155.96 99.143l22.7-62.308c7.575-20.771-20.21-13.178-26.42-8.404-4.875 3.746-13.762 12.287-17.035 21.25l-18.023 49.462h-39.2l22.702-62.308c7.569-20.771-20.206-13.178-26.418-8.404-4.883 3.746-13.773 12.29-17.043 21.258l-18.02 49.454H0L36.043.245c12.483 0 19.236 2.857 24.91 8.408 2.074 2.028 3.365 4.655 4.075 7.463 7.354-4.427 13.857-7.747 18.23-9.443C91.411 3.494 101.535.241 114.022.245c12.48 0 19.232 2.857 24.906 8.408 2.074 2.028 3.371 4.655 4.078 7.463 7.354-4.427 13.858-7.747 18.23-9.443 8.15-3.179 18.28-6.432 30.76-6.428 12.487 0 19.237 2.857 24.91 8.408 5.667 5.53 5.534 15.647 3.484 21.254l-25.23 69.236zm59.087-17.725a211.283 211.283 0 0 0 37.734 3.378h.007c13.221 0 22.818-2.93 23.855-11.863.503-4.253-3.532-7.313-10.936-11.37-8.468-4.652-15.587-6.97-22.941-11.874-7.362-4.897-10.532-12.602-8.05-20.765 2.893-9.538 9.625-15.064 19.879-20.278 12.026-6.107 21.55-8.401 44.744-8.401 14.603 0 28.886 1.399 42.712 4.06l-4.982 13.655a211.215 211.215 0 0 0-37.73-3.379c-13.229 0-22.83 2.938-23.866 11.87-.496 4.26 3.533 7.32 10.943 11.378 8.462 4.644 15.587 6.963 22.942 11.86 7.364 4.903 10.532 12.608 8.053 20.778-2.9 9.52-9.635 15.05-19.886 20.271-12.023 6.11-21.553 8.405-44.737 8.405h-.007a225.402 225.402 0 0 1-42.705-4.071zM356.953 4.305l-5.224 14.337c20.466-4.061 40.683-4.061 40.683-4.061L397.64.245s-20.344 0-40.687 4.06zm4.643 94.838l27.216-74.675s-20.347 0-40.687 4.064l-25.729 70.61z" fill="#777" mask="url(#a)"/></svg>