<svg width="68" height="52" viewBox="0 0 68 52" fill="none" xmlns="http://www.w3.org/2000/svg">
<rect x="29" y="26" width="39" height="25" fill="#636181"/>
<g clip-path="url(#clip0)">
<path d="M45.8023 52.0001C44.1395 51.8489 42.6279 51.0931 41.5697 49.8838L31.4418 37.4884C31.2906 37.3373 31.2906 37.1861 31.2906 37.035C31.2906 36.8838 31.4418 36.7326 31.593 36.5815C32.5 35.9768 33.5581 35.221 34.3139 34.314C35.2209 33.4071 35.9767 32.5001 36.5813 31.5931C36.7325 31.4419 36.8837 31.2908 37.0348 31.2908C37.186 31.2908 37.3372 31.2908 37.4883 31.4419L49.8837 41.5698C51.2441 42.628 52 44.1396 52 45.8024C52.1511 47.4652 51.3953 49.128 50.3372 50.3373C49.279 51.3954 47.7674 52.0001 46.1046 52.0001C45.9534 52.0001 45.9534 52.0001 45.8023 52.0001ZM36.8837 33.1047C36.279 33.8605 35.6744 34.4652 35.0697 35.221C34.4651 35.8257 33.7093 36.4303 32.9534 37.035V37.6396L42.3255 49.128C43.2325 50.1861 44.4418 50.7908 45.8023 50.7908H46.1046C47.3139 50.7908 48.5232 50.3373 49.4302 49.4303C50.3372 48.5233 50.9418 47.1629 50.7906 45.8024C50.7906 44.4419 50.186 43.2326 49.1279 42.3257L37.6395 32.9536L36.8837 33.1047Z" fill="white"/>
<path d="M20.5581 41.1163C15.1163 41.1163 9.82558 39 6.04651 35.0698C2.11628 31.1395 0 26 0 20.5581C0 15.1163 2.11628 9.97674 6.04651 6.04651C9.97674 2.11628 15.1163 0 20.5581 0C26 0 31.2907 2.11628 35.0698 6.04651C43.0814 14.0581 43.0814 27.2093 35.0698 35.2209C31.2907 39 26.1512 41.1163 20.5581 41.1163ZM20.5581 1.2093C15.4186 1.2093 10.4302 3.17442 6.80233 6.95349C3.17442 10.5814 1.2093 15.4186 1.2093 20.5581C1.2093 25.6977 3.17442 30.5349 6.95349 34.314C10.5814 37.9419 15.4186 40.0581 20.7093 40.0581C26 40.0581 30.686 38.093 34.4651 34.314C42.0233 26.7558 42.0233 14.5116 34.4651 6.95349C30.686 3.17442 25.8488 1.2093 20.5581 1.2093Z" fill="white"/>
<path d="M10.128 30.5348C9.82564 30.5348 9.52332 30.2325 9.52332 29.9301V16.779C9.52332 16.4766 9.82564 16.1743 10.128 16.1743H14.0582C14.3605 16.1743 14.6628 16.4766 14.6628 16.779V29.9301C14.6628 30.2325 14.3605 30.5348 14.0582 30.5348H10.128ZM10.7326 17.8371V28.872L11.1861 29.3255H13.0001L13.4535 28.872V17.8371L13.0001 17.3836H11.1861L10.7326 17.8371Z" fill="white"/>
<path d="M18.5931 30.5348C18.2907 30.5348 17.9884 30.2325 17.9884 29.9301V11.186C17.9884 10.8836 18.2907 10.5813 18.5931 10.5813H22.5233C22.8256 10.5813 23.1279 10.8836 23.1279 11.186V29.9301C23.1279 30.2325 22.8256 30.5348 22.5233 30.5348H18.5931ZM19.1977 12.2441V28.872L19.6512 29.3255H21.4651L21.9186 28.872V12.2441L21.4651 11.7906H19.6512L19.1977 12.2441Z" fill="white"/>
<path d="M27.2093 30.5349C26.9069 30.5349 26.6046 30.2326 26.6046 29.9302V20.1047C26.6046 19.8023 26.9069 19.5 27.2093 19.5H31.1395C31.4418 19.5 31.7441 19.8023 31.7441 20.1047V29.9302C31.7441 30.2326 31.4418 30.5349 31.1395 30.5349H27.2093ZM27.8139 21.1628V28.8721L28.2674 29.3256H30.0814L30.5348 28.8721V21.1628L30.0814 20.7093H28.2674L27.8139 21.1628Z" fill="white"/>
<path d="M48.5 51L33.5 36L32 37.5L41 48.5L44 51H48.5Z" fill="white"/>
</g>
<defs>
<clipPath id="clip0">
<rect width="52" height="52" fill="white"/>
</clipPath>
</defs>
</svg>
