<svg width="58" height="61" viewBox="0 0 58 61" fill="none" xmlns="http://www.w3.org/2000/svg">
<circle cx="16.5" cy="44.5" r="16.5" fill="#636181"/>
<path d="M13.9734 51C11.4891 51 9.41889 48.9155 9.41889 46.4142V42.9401L8.72881 42.2452H5.55448C3.07022 42.2452 1 40.1608 1 37.5204V23.485C1 20.1499 3.62228 17.5095 6.93463 17.5095H8.5908L9.28087 16.8147V15.1471C9.28087 11.812 11.9031 9.17166 15.2155 9.17166H27.9128L28.6029 8.33787V0.555858C28.6029 0.277929 28.8789 0 29.155 0C29.431 0 29.707 0.277929 29.707 0.555858V8.33787L30.3971 9.0327H43.0944C46.4068 9.0327 49.0291 11.673 49.0291 15.0082V16.6757L49.7191 17.3706H52.0654C55.3777 17.3706 58 20.0109 58 23.346V37.5204C58 40.0218 55.9298 42.1063 53.4455 42.1063H49.7191L49.0291 42.8011V46.2752C49.0291 48.7766 46.9588 50.861 44.4746 50.861H13.9734V51ZM34.8136 34.1853C37.2978 34.1853 39.368 36.2698 39.368 38.7711V49.1935L40.0581 49.8883H44.3366C46.2688 49.8883 47.7869 48.3597 47.7869 46.4142V15.0082C47.7869 12.3678 45.5787 10.1444 42.9564 10.1444H15.3535C12.7312 10.1444 10.523 12.3678 10.523 15.0082V46.4142C10.385 48.3597 12.0412 50.0272 13.9734 50.0272H18.2518L18.9419 49.3324V38.9101C18.9419 36.4087 21.0121 34.3242 23.4964 34.3242H34.8136V34.1853ZM20.046 43.7738V49.3324L20.7361 50.0272H37.7119L38.4019 49.3324V43.7738L37.7119 43.079H20.7361L20.046 43.7738ZM23.4964 35.297C21.5642 35.297 19.908 36.8256 19.908 38.7711V41.2725L20.5981 41.9673H37.5739L38.2639 41.2725V38.9101C38.2639 36.9646 36.7458 35.436 34.8136 35.436H23.4964V35.297ZM49.0291 19.3161V40.4387L49.7191 41.1335H53.4455C55.3777 41.1335 56.8959 39.6049 56.8959 37.6594V23.485C56.8959 20.8447 54.6877 18.6213 52.0654 18.6213H49.7191L49.0291 19.3161ZM6.93463 18.6213C4.31235 18.6213 2.10412 20.8447 2.10412 23.485V37.5204C2.10412 39.4659 3.62228 40.9945 5.55448 40.9945H8.5908L9.28087 40.2997V19.3161L8.5908 18.6213H6.93463Z" fill="white"/>
<path d="M21.8402 27.237C19.3559 27.237 17.4237 25.2915 17.4237 22.7901C17.4237 20.2888 19.3559 18.3433 21.8402 18.3433C24.3244 18.3433 26.2566 20.2888 26.2566 22.7901C26.2566 25.2915 24.1864 27.237 21.8402 27.237ZM21.8402 19.455C20.046 19.455 18.5278 20.9836 18.5278 22.7901C18.5278 24.5967 20.046 26.1253 21.8402 26.1253C23.6344 26.1253 25.1525 24.5967 25.1525 22.7901C25.1525 20.9836 23.6344 19.455 21.8402 19.455Z" fill="white"/>
<path d="M37.1598 27.237C34.6756 27.237 32.7433 25.2915 32.7433 22.7901C32.7433 20.2888 34.6756 18.3433 37.1598 18.3433C39.6441 18.3433 41.5763 20.2888 41.5763 22.7901C41.5763 25.2915 39.6441 27.237 37.1598 27.237ZM37.1598 19.455C35.3656 19.455 33.8475 20.9836 33.8475 22.7901C33.8475 24.5967 35.3656 26.1253 37.1598 26.1253C38.954 26.1253 40.4722 24.5967 40.4722 22.7901C40.4722 20.9836 39.092 19.455 37.1598 19.455Z" fill="white"/>
<path d="M12.5 26.5L10 25V46.5L11 49L13 50.5H16.5L12.5 47.5V26.5Z" fill="white"/>
</svg>
