<svg width="47" height="44" viewBox="0 0 47 44" fill="none" xmlns="http://www.w3.org/2000/svg">
<rect x="7" width="39" height="28" rx="14" fill="#58868A"/>
<path d="M29.5983 10.2054C28.0096 10.2054 26.421 10.4435 24.8911 10.9196C24.2439 9.49107 23.4201 8.18155 22.2433 6.99107C19.8309 4.49107 16.5359 3.0625 13.1231 3.0625C13.0643 3.0625 13.0643 3.0625 13.0055 3.0625C9.59275 3.0625 6.35655 4.37202 3.88527 6.8125C1.414 9.25298 0.0606818 12.5863 0.00184195 16.0387C-0.0569979 19.5506 1.29632 22.8839 3.70876 25.3839C6.18003 27.9435 9.5339 29.3125 12.9466 29.3125C13.0055 29.3125 13.0055 29.3125 13.0643 29.3125C13.2997 31.0982 13.7704 32.8244 14.5941 34.4316C14.653 34.4911 14.7118 34.5506 14.7707 34.6101C14.7707 34.6696 14.7707 34.7887 14.7707 34.8482C14.8883 35.3244 14.8883 35.7411 14.653 36.0982C13.8292 37.5268 10.8284 38.4196 9.76926 38.6577C9.53391 38.7173 9.41623 38.8363 9.35739 39.0744C9.29855 39.253 9.35738 39.4911 9.47506 39.6696C11.1226 41.4554 13.1231 41.9911 15.006 41.9911C17.3008 41.9911 19.3013 41.2173 20.0662 40.8601C22.8906 42.8244 26.1856 43.8958 29.5983 43.8958C38.7773 43.8958 46.25 36.3363 46.25 27.0506C46.25 17.7649 38.7773 10.2054 29.5983 10.2054ZM4.59135 24.5506C0.00184195 19.8482 0.119522 12.2887 4.76787 7.64583C7.00379 5.38393 9.94578 4.19345 13.1231 4.19345C16.3005 4.19345 19.2425 5.50298 21.4196 7.76488C22.5375 8.95536 23.4201 10.2649 23.9497 11.6935C23.9497 11.6935 23.9497 11.6935 23.9497 11.753C23.9497 11.753 23.9497 11.753 23.9497 11.8125C25.5972 16.0387 24.7734 20.9792 21.4784 24.4315C21.4196 24.4911 21.3019 24.6101 21.243 24.6696C20.8312 25.2054 20.6546 25.8006 20.7723 26.5149C20.9488 27.8839 22.2433 29.1339 23.1848 29.9077C20.0662 30.6815 17.595 27.7054 17.4773 27.5863C17.3008 27.3482 17.0066 27.3482 16.7124 27.4673C16.6535 27.4673 16.6535 27.4673 16.5947 27.4673C12.3582 28.9554 7.70987 27.8244 4.59135 24.5506ZM29.5983 42.7054C26.3033 42.7054 23.1259 41.6339 20.4781 39.6696C20.4781 39.6696 20.4193 39.6696 20.4193 39.6101C20.3604 39.6101 20.3604 39.5506 20.3016 39.5506C20.2428 39.5506 20.2428 39.5506 20.1839 39.5506C20.1251 39.5506 20.1251 39.5506 20.0662 39.5506C20.0074 39.5506 20.0074 39.5506 19.9486 39.6101H19.8897C19.8309 39.6101 14.653 42.2292 11.1226 39.5506C12.4759 39.1339 14.8295 38.2411 15.7121 36.6935C16.124 35.9792 16.1828 35.2649 15.9475 34.4316C15.8886 34.3125 15.8298 34.253 15.7709 34.1339C15.7709 34.0149 15.7709 33.8958 15.7121 33.8363C15.006 32.3482 14.5353 30.8006 14.2999 29.1935C15.1825 29.1339 16.0063 28.9554 16.8889 28.6577C17.595 29.372 19.5955 31.2173 22.1845 31.2173C22.9494 31.2173 23.832 31.0387 24.6558 30.622C24.8323 30.503 24.95 30.3244 25.0088 30.1458C25.0088 29.9077 24.95 29.7292 24.7734 29.6101C24.0674 29.1339 22.1845 27.5863 21.9491 26.3363C21.8903 25.9792 21.9491 25.7411 22.1845 25.4435C22.2433 25.3839 22.361 25.2649 22.4198 25.2054C25.8914 21.5149 26.8917 16.3958 25.3618 11.9315C26.774 11.5149 28.1861 11.3363 29.6571 11.3363C38.1889 11.3363 45.132 18.3601 45.132 26.9911C45.132 35.622 38.1301 42.7054 29.5983 42.7054Z" fill="white"/>
</svg>
