<svg width="48" height="48" viewBox="0 0 48 48" fill="none" xmlns="http://www.w3.org/2000/svg">
<rect y="20" width="39" height="28" rx="14" fill="#58868A"/>
<path d="M31.4383 7.14286C29.8582 7.14286 28.2781 7.38095 26.7566 7.85714C26.1128 6.42857 25.2935 5.11905 24.1231 3.92857C21.7237 1.42857 18.4465 0 15.0522 0C14.9937 0 14.9937 0 14.9352 0C11.5409 0 8.32219 1.30952 5.86427 3.75C3.40636 6.19048 2.06035 9.52381 2.00183 12.9762C1.94331 16.4881 3.28931 19.8214 5.68871 22.3214C8.14663 24.881 11.4824 26.25 14.8766 26.25C14.9352 26.25 14.9352 26.25 14.9937 26.25C15.2278 28.0357 15.6959 29.7619 16.5152 31.3691C16.5738 31.4286 16.6323 31.4881 16.6908 31.5476C16.6908 31.6071 16.6908 31.7262 16.6908 31.7857C16.8079 32.2619 16.8079 32.6786 16.5738 33.0357C15.7545 34.4643 12.7698 35.3571 11.7165 35.5952C11.4824 35.6548 11.3653 35.7738 11.3068 36.0119C11.2483 36.1905 11.3068 36.4286 11.4238 36.6071C13.0625 38.3929 15.0522 38.9286 16.9249 38.9286C19.2073 38.9286 21.197 38.1548 21.9578 37.7976C24.7668 39.7619 28.044 40.8333 31.4383 40.8333C40.5677 40.8333 48 33.2738 48 23.9881C48 14.7024 40.5677 7.14286 31.4383 7.14286ZM6.56654 21.4881C2.00183 16.7857 2.11888 9.22619 6.7421 4.58333C8.96593 2.32143 11.892 1.13095 15.0522 1.13095C18.2124 1.13095 21.1385 2.44048 23.3038 4.70238C24.4157 5.89286 25.2935 7.20238 25.8202 8.63095C25.8202 8.63095 25.8202 8.63095 25.8202 8.69048C25.8202 8.69048 25.8202 8.69048 25.8202 8.75C27.4588 12.9762 26.6395 17.9167 23.3623 21.369C23.3038 21.4286 23.1867 21.5476 23.1282 21.6071C22.7186 22.1429 22.543 22.7381 22.66 23.4524C22.8356 24.8214 24.1231 26.0714 25.0594 26.8452C21.9578 27.619 19.4999 24.6429 19.3828 24.5238C19.2073 24.2857 18.9146 24.2857 18.622 24.4048C18.5635 24.4048 18.5635 24.4048 18.505 24.4048C14.2914 25.8929 9.66819 24.7619 6.56654 21.4881ZM31.4383 39.6429C28.1611 39.6429 25.0009 38.5714 22.3674 36.6071C22.3674 36.6071 22.3089 36.6071 22.3089 36.5476C22.2504 36.5476 22.2504 36.4881 22.1919 36.4881C22.1333 36.4881 22.1333 36.4881 22.0748 36.4881C22.0163 36.4881 22.0163 36.4881 21.9578 36.4881C21.8993 36.4881 21.8993 36.4881 21.8407 36.5476H21.7822C21.7237 36.5476 16.5738 39.1667 13.0625 36.4881C14.4085 36.0714 16.7493 35.1786 17.6272 33.631C18.0368 32.9167 18.0953 32.2024 17.8613 31.3691C17.8027 31.25 17.7442 31.1905 17.6857 31.0714C17.6857 30.9524 17.6857 30.8333 17.6272 30.7738C16.9249 29.2857 16.4567 27.7381 16.2226 26.131C17.1005 26.0714 17.9198 25.8929 18.7976 25.5952C19.4999 26.3095 21.4896 28.1548 24.0646 28.1548C24.8253 28.1548 25.7032 27.9762 26.5225 27.5595C26.698 27.4405 26.8151 27.2619 26.8736 27.0833C26.8736 26.8452 26.8151 26.6667 26.6395 26.5476C25.9373 26.0714 24.0646 24.5238 23.8305 23.2738C23.772 22.9167 23.8305 22.6786 24.0646 22.381C24.1231 22.3214 24.2401 22.2024 24.2987 22.1429C27.7514 18.4524 28.7463 13.3333 27.2247 8.86905C28.6293 8.45238 30.0338 8.27381 31.4968 8.27381C39.9825 8.27381 46.8881 15.2976 46.8881 23.9286C46.8881 32.5595 39.924 39.6429 31.4383 39.6429Z" fill="white"/>
</svg>
