<svg width="94" height="51" viewBox="0 0 94 51" fill="none" xmlns="http://www.w3.org/2000/svg">
<path d="M61.8226 39L52 0L94 12.1034L61.8226 39Z" fill="#28929C"/>
<g clip-path="url(#clip0)">
<path d="M8.88909 20.3478C8.51083 20.3478 8.13257 19.9696 8.13257 19.4022C8.13257 18.8348 8.51083 18.4565 9.07822 18.4565H34.0434C34.4217 18.4565 34.9891 18.8348 34.9891 19.4022C34.9891 19.9696 34.6108 20.3478 34.0434 20.3478H8.88909Z" fill="white"/>
<path d="M17.5891 29.9936C17.2108 29.9936 16.6434 29.6153 16.6434 29.0479C16.6434 28.6697 17.0217 28.1023 17.5891 28.1023H30.8282C31.2065 28.1023 31.7739 28.4806 31.7739 29.0479C31.7739 29.4262 31.3956 29.9936 30.8282 29.9936H17.5891Z" fill="white"/>
<path d="M52.3891 50.0413C45.2022 50.0413 38.3935 46.0696 34.8 39.8283L33.8543 39.2609H24.7761C24.3978 39.2609 23.8304 38.8826 23.8304 38.3152C23.8304 37.7478 24.2087 37.3696 24.7761 37.3696H34.9891C35.3674 37.3696 35.5565 37.5587 35.7457 37.7478C39.15 43.9891 45.3913 47.9609 52.3891 47.9609C62.7913 47.9609 71.113 39.45 71.113 29.237C71.113 18.8348 62.6022 10.513 52.3891 10.513H0.945652C0.378261 10.7022 0 10.3239 0 9.94565C0 9.56739 0.378261 9 0.945652 9H52.5783C63.9261 9 73.0043 18.2674 73.0043 29.4261C73.0043 40.7739 63.737 50.0413 52.3891 50.0413Z" fill="white"/>
<path d="M57.8739 36.4239C57.6847 36.4239 57.3065 36.2348 57.1174 36.0456L51.6326 30.5608C51.6326 30.5608 51.6326 30.5608 51.6326 30.3717C51.6326 30.3717 51.6326 30.3717 51.6326 30.1826V29.9934V29.8043V17.5108C51.6326 16.9434 52.2 16.5652 52.5782 16.5652C52.7674 16.5652 52.9565 16.5652 53.1456 16.7543C53.3347 16.9434 53.3347 17.1326 53.3347 17.3217V17.5108V28.8587L53.713 29.6152L58.6304 34.5326C59.0087 34.9108 59.0087 35.6674 58.6304 36.0456C58.2521 36.4239 57.8739 36.4239 57.8739 36.4239Z" fill="white"/>
<path d="M39 36L35 38.5C42.6 51.7 56.1667 49.6667 62 47L60 43.5C48.4 48.7 41.1667 40.6667 39 36Z" fill="white"/>
</g>
<defs>
<clipPath id="clip0">
<rect width="73.0043" height="41.0413" fill="white" transform="translate(0 9)"/>
</clipPath>
</defs>
</svg>
