<svg width="562" height="488" xmlns="http://www.w3.org/2000/svg" xmlns:xlink="http://www.w3.org/1999/xlink"><defs><radialGradient cx="49.972%" cy="50.194%" fx="49.972%" fy="50.194%" r="50.314%" id="a"><stop stop-color="#231F20" offset="0%"/><stop stop-opacity="0" offset="100%"/></radialGradient><linearGradient x1="0%" y1="0%" y2="0%" id="b"><stop stop-opacity=".004" offset="0%"/><stop stop-color="#005E7B" offset="50.176%"/><stop stop-opacity="0" offset="100%"/></linearGradient><linearGradient x1="0%" y1="0%" y2="0%" id="c"><stop stop-opacity=".017" offset="0%"/><stop stop-color="#005E7B" offset="50.176%"/><stop stop-opacity=".014" offset="100%"/></linearGradient><linearGradient x1="4.542%" y1="50.755%" x2="92.88%" y2="50.486%" id="d"><stop stop-color="#CDDC39" stop-opacity="0" offset="0%"/><stop stop-color="#CDDC39" offset="100%"/></linearGradient><circle id="f" cx="428.074" cy="39.062" r="5"/><filter x="-210%" y="-150%" width="420%" height="420%" filterUnits="objectBoundingBox" id="e"><feOffset dx="-5" dy="1" in="SourceAlpha" result="shadowOffsetOuter1"/><feGaussianBlur stdDeviation="4.5" in="shadowOffsetOuter1" result="shadowBlurOuter1"/><feColorMatrix values="0 0 0 0 0.803921569 0 0 0 0 0.862745098 0 0 0 0 0.223529412 0 0 0 0.612789554 0" in="shadowBlurOuter1"/></filter><linearGradient x1="5.684%" y1="57.23%" x2="92.88%" y2="54.681%" id="g"><stop stop-color="#E91D63" stop-opacity="0" offset="0%"/><stop stop-color="#E91D63" offset="100%"/></linearGradient><circle id="i" cx="430.074" cy="44" r="5"/><filter x="-210%" y="-150%" width="420%" height="420%" filterUnits="objectBoundingBox" id="h"><feOffset dx="-5" dy="1" in="SourceAlpha" result="shadowOffsetOuter1"/><feGaussianBlur stdDeviation="4.5" in="shadowOffsetOuter1" result="shadowBlurOuter1"/><feColorMatrix values="0 0 0 0 0.914330781 0 0 0 0 0.113406159 0 0 0 0 0.387029469 0 0 0 0.61 0" in="shadowBlurOuter1"/></filter><filter x="-10.6%" y="-39.9%" width="121.6%" height="179.8%" filterUnits="objectBoundingBox" id="j"><feOffset in="SourceAlpha" result="shadowOffsetOuter1"/><feGaussianBlur stdDeviation="8.5" in="shadowOffsetOuter1" result="shadowBlurOuter1"/><feColorMatrix values="0 0 0 0 0.00555539038 0 0 0 0 0.738332987 0 0 0 0 0.831131279 0 0 0 0.958916084 0" in="shadowBlurOuter1" result="shadowMatrixOuter1"/><feMerge><feMergeNode in="shadowMatrixOuter1"/><feMergeNode in="SourceGraphic"/></feMerge></filter></defs><g fill="none" fill-rule="evenodd"><circle fill="url(#a)" cx="290.674" cy="244" r="244"/><g transform="translate(0 126)" fill="url(#b)" fill-rule="nonzero"><path d="M.95 1h560.247V0H.95zM.95 35h560.247v-1H.95zM.95 69h560.247v-1H.95zM.95 103h560.247v-1H.95zM.95 136h560.247v-1H.95zM.95 170h560.247v-1H.95zM.95 204h560.247v-1H.95z"/></g><g transform="rotate(-90 264.5 180.5)" fill="url(#c)" fill-rule="nonzero"><path d="M.534 1.174h385.794v-1H.534zM.534 61.174h385.794v-1H.534zM.534 117.174h385.794v-1H.534zM.534 175.174h385.794v-1H.534zM.534 233.174h385.794v-1H.534zM.534 291.174h385.794v-1H.534zM.534 348.174h385.794v-1H.534zM.534 406.174h385.794v-1H.534z"/></g><path d="M373.671 89.5h.675l-.08 3.915h.17l1.845-3.825h.792l.036 3.825h.171l1.764-3.915h.684l-2.043 4.5h-1.197l-.027-3.537L374.778 94h-1.17l.063-4.5zm7.504 3.591c0 .276.15.414.45.414l.693-.054-.045.513a3.429 3.429 0 0 1-.891.126c-.282 0-.504-.075-.666-.225-.162-.15-.243-.351-.243-.603s.048-.57.144-.954l.522-2.223h-.594l.153-.585h.585l.315-1.332h.675l-.324 1.332h1.26l-.144.585h-1.26l-.522 2.259a3.147 3.147 0 0 0-.108.747zm5.064-5.643c.204 0 .42.03.648.09l.108.036-.126.522a3.927 3.927 0 0 0-.675-.063.564.564 0 0 0-.49.252c-.117.168-.227.447-.329.837l-.09.378h1.206l-.144.585h-1.188L384.25 94l-.549 1.998h-.585l1.368-5.904h-.513l.144-.594h.495l.1-.387c.143-.612.328-1.042.553-1.291.225-.25.55-.374.976-.374zm3.264 5.6c-.03.054-.12.157-.265.308a4.554 4.554 0 0 1-.391.37 1.944 1.944 0 0 1-.414.252 1.095 1.095 0 0 1-.46.112c-.767 0-1.151-.447-1.151-1.341 0-.498.08-.994.238-1.49.16-.495.419-.926.779-1.296.36-.369.777-.553 1.25-.553.367 0 .868.054 1.504.162l.342.063-.684 2.925c-.084.336-.156.732-.216 1.188l-.036.234-.657.027c.084-.516.138-.837.162-.963l-.001.001zm.649-2.927a5.652 5.652 0 0 0-1.085-.126c-.303 0-.58.154-.832.463a2.922 2.922 0 0 0-.55 1.08 4.176 4.176 0 0 0-.17 1.103c0 .324.05.549.153.675.102.126.255.189.459.189.204 0 .427-.097.67-.292a4.08 4.08 0 0 0 .608-.59l.234-.297.513-2.205zm5.1 0a9.89 9.89 0 0 0-1.372-.126c-.345 0-.61.085-.797.256a.808.808 0 0 0-.279.617c0 .144.054.252.162.324.108.072.359.159.752.261.393.102.682.217.868.346.186.13.28.347.28.653 0 .528-.184.933-.55 1.215-.366.282-.837.423-1.413.423-.384 0-.789-.054-1.215-.162l-.207-.045.126-.522c.552.096 1.01.144 1.373.144s.652-.078.868-.234c.216-.156.324-.384.324-.684 0-.168-.057-.286-.17-.356-.115-.069-.362-.15-.743-.242-.381-.094-.665-.206-.85-.338-.187-.132-.28-.339-.28-.621 0-.48.168-.87.504-1.17.336-.3.76-.45 1.27-.45.45 0 .875.048 1.277.144l.207.045-.135.522zm1.852 2.97c0 .276.15.414.45.414l.693-.054-.045.513a3.429 3.429 0 0 1-.891.126c-.282 0-.504-.075-.666-.225-.162-.15-.243-.351-.243-.603s.048-.57.144-.954l.522-2.223h-.594l.153-.585h.585l.315-1.332h.675l-.324 1.332h1.26l-.144.585h-1.26l-.522 2.259a3.147 3.147 0 0 0-.108.747zm7.32-3.681c.282 0 .603.042.963.126l.162.045-.17.522a5.542 5.542 0 0 0-.973-.108c-.36 0-.669.132-.927.396-.486.486-.729 1.221-.729 2.205 0 .3.072.526.216.68.144.153.381.229.711.229.234 0 .51-.033.828-.099l.18-.036-.045.531a4.26 4.26 0 0 1-1.246.189c-.417 0-.744-.118-.981-.356-.237-.237-.356-.574-.356-1.012 0-1.284.348-2.229 1.044-2.835.366-.318.807-.477 1.323-.477zm3.967 0c1.038 0 1.557.51 1.557 1.53 0 .558-.089 1.074-.266 1.548-.177.474-.442.86-.796 1.156a1.849 1.849 0 0 1-1.224.446c-1.026 0-1.54-.492-1.54-1.476 0-.864.215-1.614.644-2.25.43-.636.97-.954 1.625-.954zm-.73 4.095c.48 0 .87-.253 1.166-.76.297-.508.446-1.112.446-1.814 0-.288-.074-.516-.22-.684-.148-.168-.368-.252-.662-.252-.468 0-.85.262-1.148.787-.297.526-.445 1.139-.445 1.841 0 .588.288.882.864.882zm6.163-4.095c.348 0 .612.102.792.306.18.204.27.468.27.792s-.06.726-.18 1.206l-.53 2.286h-.667l.522-2.241c.114-.456.171-.816.171-1.08 0-.45-.204-.675-.612-.675-.18 0-.385.084-.616.252a3.272 3.272 0 0 0-.563.504l-.207.252-.693 2.988h-.666l1.035-4.5h.657l-.162.783c.054-.066.125-.147.212-.243s.258-.225.513-.387.496-.243.724-.243zm4.984 0c.348 0 .612.102.792.306.18.204.27.468.27.792s-.06.726-.18 1.206L419.159 94h-.666l.522-2.241c.114-.456.17-.816.17-1.08 0-.45-.203-.675-.611-.675-.18 0-.386.084-.617.252a3.273 3.273 0 0 0-.562.504l-.207.252-.693 2.988h-.666l1.035-4.5h.657l-.162.783c.054-.066.124-.147.211-.243s.258-.225.513-.387.497-.243.725-.243zm2.904 3.276c0 .258.078.457.234.598a.828.828 0 0 0 .576.212 6.29 6.29 0 0 0 1.314-.144l.225-.054-.054.531a4.962 4.962 0 0 1-1.539.261c-.954 0-1.43-.456-1.43-1.368 0-.834.188-1.578.566-2.232.192-.324.449-.585.77-.783a2.024 2.024 0 0 1 1.084-.297c.888 0 1.332.366 1.332 1.098 0 .534-.2.907-.603 1.12-.402.214-1.04.32-1.917.32h-.459c-.066.234-.099.48-.099.738zm.684-1.269c.612 0 1.053-.064 1.323-.194.27-.129.405-.364.405-.706 0-.36-.23-.54-.693-.54-.738 0-1.248.48-1.53 1.44h.495zm5.677-2.007c.282 0 .603.042.963.126l.162.045-.171.522a5.542 5.542 0 0 0-.972-.108c-.36 0-.67.132-.927.396-.486.486-.73 1.221-.73 2.205 0 .3.073.526.217.68.144.153.38.229.71.229.235 0 .51-.033.829-.099l.18-.036-.045.531a4.26 4.26 0 0 1-1.247.189c-.417 0-.744-.118-.98-.356-.238-.237-.356-.574-.356-1.012 0-1.284.348-2.229 1.044-2.835.366-.318.807-.477 1.323-.477zm2.67 3.681c0 .276.15.414.45.414l.693-.054-.045.513a3.429 3.429 0 0 1-.89.126c-.283 0-.505-.075-.667-.225-.162-.15-.243-.351-.243-.603s.048-.57.144-.954l.522-2.223h-.594l.153-.585h.585l.315-1.332h.675l-.324 1.332h1.26l-.144.585h-1.26l-.522 2.259a3.147 3.147 0 0 0-.108.747zm2.239.909l1.035-4.5h.675l-1.044 4.5h-.666zm1.242-5.436l.198-.81h.675l-.19.81h-.683zm3.606.846c1.038 0 1.557.51 1.557 1.53 0 .558-.089 1.074-.266 1.548-.177.474-.442.86-.796 1.156a1.849 1.849 0 0 1-1.224.446c-1.026 0-1.54-.492-1.54-1.476 0-.864.215-1.614.644-2.25.43-.636.97-.954 1.625-.954zm-.73 4.095c.48 0 .87-.253 1.166-.76.297-.508.446-1.112.446-1.814 0-.288-.074-.516-.22-.684-.148-.168-.368-.252-.662-.252-.468 0-.85.262-1.148.787-.297.526-.445 1.139-.445 1.841 0 .588.288.882.864.882zm6.163-4.095c.348 0 .612.102.792.306.18.204.27.468.27.792s-.06.726-.18 1.206l-.53 2.286h-.667l.522-2.241c.114-.456.171-.816.171-1.08 0-.45-.204-.675-.612-.675-.18 0-.385.084-.616.252a3.273 3.273 0 0 0-.563.504l-.207.252L440.95 94h-.666l1.035-4.5h.657l-.162.783c.054-.066.125-.147.212-.243s.258-.225.513-.387.496-.243.724-.243zM370.974 109l1.044-4.5h.666l-.162.666c.558-.402 1.1-.657 1.629-.765l-.18.693c-.324.084-.76.264-1.305.54l-.27.135-.747 3.231h-.675zm4.128-1.314c0 .258.078.457.234.598a.828.828 0 0 0 .576.212 6.29 6.29 0 0 0 1.314-.144l.225-.054-.054.531a4.962 4.962 0 0 1-1.539.261c-.954 0-1.43-.456-1.43-1.368 0-.834.188-1.578.566-2.232.192-.324.449-.585.77-.783a2.024 2.024 0 0 1 1.084-.297c.888 0 1.332.366 1.332 1.098 0 .534-.2.907-.603 1.12-.402.214-1.04.32-1.917.32h-.459c-.066.234-.099.48-.099.738zm.684-1.269c.612 0 1.053-.064 1.323-.194.27-.129.405-.364.405-.706 0-.36-.23-.54-.693-.54-.738 0-1.248.48-1.53 1.44h.495zm4.255 4.698c-.498 0-.891-.103-1.18-.31-.287-.208-.431-.497-.431-.869 0-.51.396-.969 1.188-1.377a.483.483 0 0 1-.144-.355c0-.142.042-.284.126-.428.084-.144.168-.258.252-.342l.117-.135c-.414-.192-.621-.537-.621-1.035 0-.498.165-.931.495-1.3.33-.37.768-.554 1.314-.554.276 0 .525.036.747.108l.117.036 1.332-.054-.135.576h-.801c.102.168.153.375.153.621 0 .45-.17.858-.509 1.224-.339.366-.802.549-1.39.549l-.297-.027c-.186.24-.28.423-.28.549 0 .126.058.212.172.257.114.044.372.093.774.144.402.05.71.155.927.314.216.16.324.407.324.743 0 .462-.206.855-.617 1.179-.41.324-.955.486-1.633.486zm-.072-2.322c-.24.12-.45.27-.63.45s-.27.372-.27.576c0 .204.084.375.252.513.168.138.442.207.823.207.381 0 .725-.093 1.03-.279.307-.186.46-.438.46-.756 0-.18-.065-.309-.194-.387-.129-.078-.367-.138-.715-.18-.348-.042-.6-.09-.756-.144zm.765-1.881c.378 0 .672-.127.882-.383.21-.255.315-.514.315-.778s-.063-.459-.19-.585c-.125-.126-.346-.189-.66-.189a.967.967 0 0 0-.784.382c-.207.256-.31.533-.31.833 0 .48.249.72.747.72zm4.191 2.178c-.348 0-.612-.102-.792-.306-.18-.204-.27-.468-.27-.792s.06-.726.18-1.206l.531-2.286h.666l-.522 2.241c-.114.456-.17.816-.17 1.08 0 .45.203.675.611.675.18 0 .386-.084.617-.252a2.98 2.98 0 0 0 .553-.504l.216-.252.693-2.988h.666l-1.035 4.5h-.657l.162-.783a6.587 6.587 0 0 1-.211.243c-.087.096-.258.225-.513.387s-.497.243-.725.243zm3.67-.09l1.494-6.462h.666L389.27 109h-.675zm5.288-.953c-.03.055-.119.158-.264.31a4.554 4.554 0 0 1-.392.368 1.944 1.944 0 0 1-.414.253 1.095 1.095 0 0 1-.459.112c-.768 0-1.152-.447-1.152-1.341 0-.498.08-.994.239-1.49.159-.495.418-.926.778-1.296.36-.369.777-.553 1.251-.553.366 0 .867.054 1.503.162l.342.063-.684 2.925c-.084.336-.156.732-.216 1.188l-.036.234-.657.027c.084-.516.138-.837.162-.963v.001zm.65-2.926a5.652 5.652 0 0 0-1.085-.126c-.303 0-.58.154-.833.463a2.922 2.922 0 0 0-.549 1.08 4.176 4.176 0 0 0-.17 1.103c0 .324.05.549.152.675s.255.189.46.189c.203 0 .427-.097.67-.292a4.08 4.08 0 0 0 .607-.59l.234-.297.513-2.205zm1.464 3.879l1.044-4.5h.666l-.162.666c.558-.402 1.1-.657 1.629-.765l-.18.693c-.324.084-.76.264-1.305.54l-.27.135-.747 3.231h-.675zm8.427-4.59c.282 0 .603.042.963.126l.162.045-.17.522a5.542 5.542 0 0 0-.973-.108c-.36 0-.669.132-.927.396-.486.486-.729 1.221-.729 2.205 0 .3.072.526.216.68.144.153.381.229.711.229.234 0 .51-.033.828-.099l.18-.036-.045.531a4.26 4.26 0 0 1-1.246.189c-.417 0-.744-.118-.981-.356-.237-.237-.356-.574-.356-1.012 0-1.284.348-2.229 1.044-2.835.366-.318.807-.477 1.323-.477zm3.967 0c1.038 0 1.557.51 1.557 1.53 0 .558-.089 1.074-.266 1.548-.177.474-.442.86-.796 1.156a1.849 1.849 0 0 1-1.224.446c-1.026 0-1.54-.492-1.54-1.476 0-.864.215-1.614.644-2.25.43-.636.97-.954 1.625-.954zm-.73 4.095c.48 0 .87-.253 1.166-.76.297-.508.446-1.112.446-1.814 0-.288-.074-.516-.22-.684-.148-.168-.368-.252-.662-.252-.468 0-.85.262-1.148.787-.297.526-.445 1.139-.445 1.841 0 .588.288.882.864.882zm6.163-4.095c.348 0 .612.102.792.306.18.204.27.468.27.792s-.06.726-.18 1.206l-.53 2.286h-.667l.522-2.241c.114-.456.171-.816.171-1.08 0-.45-.204-.675-.612-.675-.18 0-.385.084-.616.252a3.272 3.272 0 0 0-.563.504l-.207.252-.693 2.988h-.666l1.035-4.5h.657l-.162.783c.054-.066.125-.147.212-.243s.258-.225.513-.387.496-.243.724-.243zm4.984 0c.348 0 .612.102.792.306.18.204.27.468.27.792s-.06.726-.18 1.206l-.531 2.286h-.666l.522-2.241c.114-.456.17-.816.17-1.08 0-.45-.203-.675-.611-.675-.18 0-.386.084-.617.252a3.273 3.273 0 0 0-.562.504l-.207.252-.693 2.988h-.666l1.035-4.5h.657l-.162.783c.054-.066.124-.147.211-.243s.258-.225.513-.387.497-.243.725-.243zm2.904 3.276c0 .258.078.457.234.598a.828.828 0 0 0 .576.212 6.29 6.29 0 0 0 1.314-.144l.225-.054-.054.531a4.962 4.962 0 0 1-1.539.261c-.954 0-1.43-.456-1.43-1.368 0-.834.188-1.578.566-2.232.192-.324.449-.585.77-.783a2.024 2.024 0 0 1 1.084-.297c.888 0 1.332.366 1.332 1.098 0 .534-.2.907-.603 1.12-.402.214-1.04.32-1.917.32h-.459c-.066.234-.099.48-.099.738zm.684-1.269c.612 0 1.053-.064 1.323-.194.27-.129.405-.364.405-.706 0-.36-.23-.54-.693-.54-.738 0-1.248.48-1.53 1.44h.495zm5.677-2.007c.282 0 .603.042.963.126l.162.045-.171.522a5.542 5.542 0 0 0-.972-.108c-.36 0-.67.132-.927.396-.486.486-.73 1.221-.73 2.205 0 .3.073.526.217.68.144.153.38.229.71.229.235 0 .51-.033.829-.099l.18-.036-.045.531a4.26 4.26 0 0 1-1.247.189c-.417 0-.744-.118-.98-.356-.238-.237-.356-.574-.356-1.012 0-1.284.348-2.229 1.044-2.835.366-.318.807-.477 1.323-.477zm2.67 3.681c0 .276.15.414.45.414l.693-.054-.045.513a3.429 3.429 0 0 1-.89.126c-.283 0-.505-.075-.667-.225-.162-.15-.243-.351-.243-.603s.048-.57.144-.954l.522-2.223h-.594l.153-.585h.585l.315-1.332h.675l-.324 1.332h1.26l-.144.585h-1.26l-.522 2.259a3.147 3.147 0 0 0-.108.747zm2.239.909l1.035-4.5h.675l-1.044 4.5h-.666zm1.242-5.436l.198-.81h.675l-.19.81h-.683zm3.606.846c1.038 0 1.557.51 1.557 1.53 0 .558-.089 1.074-.266 1.548-.177.474-.442.86-.796 1.156a1.849 1.849 0 0 1-1.224.446c-1.026 0-1.54-.492-1.54-1.476 0-.864.215-1.614.644-2.25.43-.636.97-.954 1.625-.954zm-.73 4.095c.48 0 .87-.253 1.166-.76.297-.508.446-1.112.446-1.814 0-.288-.074-.516-.22-.684-.148-.168-.368-.252-.662-.252-.468 0-.85.262-1.148.787-.297.526-.445 1.139-.445 1.841 0 .588.288.882.864.882zm6.163-4.095c.348 0 .612.102.792.306.18.204.27.468.27.792s-.06.726-.18 1.206l-.53 2.286h-.667l.522-2.241c.114-.456.171-.816.171-1.08 0-.45-.204-.675-.612-.675-.18 0-.385.084-.616.252a3.273 3.273 0 0 0-.563.504l-.207.252-.693 2.988h-.666l1.035-4.5h.657l-.162.783c.054-.066.125-.147.212-.243s.258-.225.513-.387.496-.243.724-.243z" fill="#FFF" fill-rule="nonzero"/><path d="M0 41.01c8.81 0 19.401-3.35 32.364-9.639 4.935-2.393 10.085-5.143 16.188-8.588 3.304-1.866 14.053-8.076 15.77-9.051 5.612-3.19 9.527-5.259 12.767-6.689C86.75 2.78 99.757.73 114.183 1.765c17.207 1.236 35.614 6.73 54.343 16.923 12.993 7.071 23.634 10.354 33.063 10.658 7.208.232 12.383-.956 21.157-4.123.05-.017 1.649-.596 2.108-.76a152.1 152.1 0 0 1 2.073-.732c4.95-1.698 8.555-2.476 12.499-2.476 16.635 0 40.865 3.078 105.148 12.642 31.873 4.742 59.68 7.114 83.426 7.114a1.5 1.5 0 0 0 0-3c-23.586 0-51.249-2.36-82.985-7.081-64.505-9.597-88.732-12.675-105.59-12.675-4.332 0-8.236.842-13.472 2.639-.641.22-1.308.455-2.114.745l-2.111.762c-8.446 3.049-13.302 4.164-20.043 3.947-8.921-.288-19.118-3.434-31.725-10.295C150.86 5.657 132.037.04 114.397-1.227 99.5-2.297 86.002-.169 75.878 4.299c-3.357 1.481-7.344 3.588-13.039 6.824-1.73.983-12.474 7.191-15.762 9.047-6.053 3.418-11.151 6.14-16.022 8.502C18.465 34.779 8.252 38.011 0 38.011a1.5 1.5 0 0 0 0 3z" fill="url(#d)" fill-rule="nonzero" transform="translate(23.6 269.938)"/><g transform="translate(23.6 269.938)"><use fill="#000" filter="url(#e)" xlink:href="#f"/><use fill="#CDDC39" xlink:href="#f"/></g><path d="M325.426 40.956c2.451 5.728 5.027 12.409 7.99 20.59 1.784 4.93 8.769 24.884 10.319 29.095 3.904 10.607 5.595 14.203 7.84 14.203 12.935 0 45.359-24.105 51.551-39.511 2.736-6.808 7.557-12.007 13.686-15.564 4.701-2.728 9.958-4.269 13.262-4.269a1.5 1.5 0 0 0 0-3c-3.858 0-9.627 1.692-14.767 4.674-6.681 3.877-11.964 9.576-14.964 17.04-5.699 14.177-36.51 37.18-48.425 37.623a3.927 3.927 0 0 1-.231-.303c-.366-.523-.817-1.35-1.34-2.464-.997-2.118-2.226-5.2-3.797-9.466-1.54-4.183-8.521-24.127-10.314-29.079-2.98-8.23-5.574-14.96-8.051-20.75-5.848-13.667-10.635-21.267-15.195-22.399-4.709-1.169-8.29 9.833-15.675 40.386-.56 2.316-1.141 4.748-1.856 7.752-5.64 23.723-6.451 27.04-8.517 34.253-1.342 4.687-2.49 8.042-3.456 10.046-.241.5-.465.9-.655 1.19-5.007-6.823-8.93-16.38-12.308-28.816-2.077-7.65-6.929-30.593-7.53-32.88-1.592-6.06-2.972-8.934-5.372-9.29-5.9-.878-11.63 5.412-19.405 18.776-1.717 2.95-3.377 5.958-5.938 10.701-7.964 14.754-10.23 18.693-13.691 23.084-4.238 5.377-6.879 6.208-9.202 2.89-6.601-9.43-11.744-21.65-16.25-37.263-2.736-9.48-9.757-39.691-9.623-39.166C179.859 4.73 176.782-1.5 171.574-1.5c-5.562 0-9.497 6.49-12.789 18.701-2.478 9.195-4.396 20.513-6.886 38.891-.373 2.758-1.657 12.412-1.903 14.237-1.94 14.394-3.285 22.773-4.875 29.383-1.813 7.537-3.798 11.375-5.36 11.375-1.934 0-3.63-2.386-5.039-7.422-1.177-4.21-1.89-8.707-3.178-18.833l-.212-1.666c-1.5-11.775-2.486-17.424-4.237-22.301-2.472-6.884-6.31-9.826-11.673-7.46-3.95 1.743-10.418 6.101-20.776 13.802-5.076 3.773-26.242 19.887-30.871 23.361a1084.5 1084.5 0 0 1-8.363 6.217C27.571 117.262 9.325 128.011 0 128.011a1.5 1.5 0 0 0 0 3c10.284 0 28.656-10.823 57.19-31.81 2.662-1.957 5.43-4.016 8.385-6.233 4.643-3.484 25.802-19.593 30.861-23.354 10.157-7.55 16.534-11.848 20.197-13.464 3.383-1.493 5.677.265 7.638 5.728 1.648 4.591 2.615 10.132 4.085 21.667l.212 1.665c1.308 10.287 2.033 14.856 3.265 19.263 1.74 6.222 4.153 9.614 7.929 9.614 3.708 0 6.1-4.624 8.276-13.674 1.622-6.742 2.978-15.188 4.931-29.684.247-1.828 1.53-11.48 1.903-14.234 2.473-18.253 4.376-29.482 6.81-38.513C164.62 7.086 168.006 1.5 171.574 1.5c3.021 0 5.802 5.63 9.031 18.281-.151-.593 6.886 29.685 9.648 39.256 4.589 15.903 9.85 28.402 16.674 38.151 3.847 5.495 8.726 3.96 14.016-2.753 3.62-4.593 5.897-8.55 13.975-23.516 2.546-4.717 4.194-7.701 5.89-10.617 7.06-12.134 12.33-17.92 16.372-17.318.553.082 1.699 2.468 2.912 7.086.575 2.188 5.43 25.146 7.536 32.903 3.569 13.14 7.755 23.207 13.256 30.435.88 1.155 2.25 1.34 3.38.462.684-.53 1.288-1.435 1.924-2.754 1.06-2.197 2.252-5.683 3.638-10.523 2.085-7.279 2.895-10.592 8.552-34.385.713-3 1.295-5.43 1.853-7.74 3.079-12.736 5.369-21.39 7.457-27.805 1.212-3.725 2.31-6.52 3.288-8.338.476-.884.908-1.507 1.264-1.848.071-.067.13-.116.176-.148 3.176.975 7.704 8.223 13.01 20.627z" fill="url(#g)" fill-rule="nonzero" transform="translate(23.6 151)"/><g transform="translate(23.6 151)"><use fill="#000" filter="url(#h)" xlink:href="#i"/><use fill="#E91D63" xlink:href="#i"/></g><g fill-rule="nonzero"><g filter="url(#j)" transform="translate(121.674 354)"><path d="M34 84c7.014 0 13.747-1.931 19.572-5.52a36.858 36.858 0 0 0 13.212-14.045A35.958 35.958 0 0 0 71 47.5C71 27.332 54.425 11 34 11S-3 27.332-3 47.5a3 3 0 0 0 6 0C3 30.665 16.87 17 34 17c17.13 0 31 13.665 31 30.5 0 4.988-1.216 9.798-3.513 14.118a30.858 30.858 0 0 1-11.062 11.754C45.541 76.381 39.895 78 34 78a3 3 0 0 0 0 6zM201.5 47a35.977 35.977 0 0 0-5.616-19.341 36.97 36.97 0 0 0-14.25-13.017A37.256 37.256 0 0 0 164.5 10.5c-20.425 0-37 16.332-37 36.5s16.575 36.5 37 36.5a3 3 0 0 0 0-6c-17.13 0-31-13.665-31-30.5s13.87-30.5 31-30.5c5.083 0 9.984 1.203 14.382 3.473a30.97 30.97 0 0 1 11.935 10.9A29.978 29.978 0 0 1 195.5 47a3 3 0 0 0 6 0zM315.859 77.324c5.79-3.88 10.256-9.211 13.037-15.419a36.532 36.532 0 0 0 2.967-18.978 36.291 36.291 0 0 0-6.073-16.385c-11.364-16.737-34.223-21.152-51.065-9.866-16.854 11.293-21.303 34.033-9.931 50.782a3 3 0 0 0 4.964-3.37c-9.5-13.993-5.785-32.985 8.307-42.428 14.104-9.45 33.252-5.753 42.76 8.252a30.29 30.29 0 0 1 5.075 13.682 30.532 30.532 0 0 1-2.48 15.858c-2.323 5.187-6.053 9.64-10.901 12.888a3 3 0 1 0 3.34 4.984z" fill="#547A89" opacity=".329"/><path d="M51.77 29.972c-10.726-9.594-27.129-8.887-36.645 1.612C5.601 42.092 6.61 58.4 17.345 68.003a2.5 2.5 0 0 0 3.333-3.727c-8.683-7.767-9.495-20.897-1.848-29.335 7.656-8.446 20.914-9.018 29.606-1.243a2.5 2.5 0 0 0 3.333-3.726zM144.258 33.048c-7.225 12.432-3.112 28.25 9.21 35.317 12.312 7.062 28.134 2.698 35.353-9.724a2.5 2.5 0 0 0-4.323-2.512c-5.845 10.058-18.63 13.584-28.542 7.899-9.903-5.68-13.215-18.419-7.375-28.467a2.5 2.5 0 1 0-4.323-2.513zM295.468 22.317c-14.398 1-25.291 13.225-24.298 27.333.993 14.106 13.49 24.703 27.885 23.703a2.5 2.5 0 0 0-.346-4.988c-11.67.81-21.754-7.741-22.551-19.067-.797-11.323 7.988-21.183 19.656-21.993a2.5 2.5 0 1 0-.346-4.988z" fill="#01BCD4" opacity=".572"/></g><path fill="#2E2E2E" d="M98.507 359.5h56.111v-5H98.507zM226.507 359.5h56.111v-5h-56.111zM363.507 359.5h56.111v-5h-56.111zM98.507 370.5h42.778v-5H98.507zM226.507 370.5h42.778v-5h-42.778zM363.507 370.5h42.778v-5h-42.778z"/></g><path fill="#2E2E2E" fill-rule="nonzero" d="M60.563 91H206.34V81H60.562zM60.563 110h61.11v-10h-61.11z"/><path fill="#CDDC39" fill-rule="nonzero" d="M455.6 92h10.74v-4H455.6z"/><path fill="#E91D63" fill-rule="nonzero" d="M455.6 109h10.74v-4H455.6z"/></g></svg>