<svg width="60" height="70" viewBox="0 0 60 70" fill="none" xmlns="http://www.w3.org/2000/svg">
<path d="M38.209 38.1977L17.743 35.746L10.8783 21.3627L20.6851 -8.16974e-05L38.209 38.1977Z" fill="#28929C"/>
<path d="M40.2198 21.9737C38.4066 21.9737 36.7582 20.8104 36.0989 19.1486L35.7692 18.9824H21.4285C20.7692 18.9824 20.1099 18.3177 20.1099 17.653C20.1099 16.9883 20.7692 16.3235 21.4285 16.3235H35.7692L36.0989 16.1573C36.7582 14.4955 38.4066 13.3323 40.2198 13.3323C42.6923 13.3323 44.6703 15.3264 44.6703 17.8192C44.6703 19.9795 42.6923 21.9737 40.2198 21.9737ZM40.2198 13.8308C38.2417 13.8308 36.5934 15.4926 36.5934 17.4868C36.5934 19.481 38.2417 21.1428 40.2198 21.1428C42.1978 21.1428 43.8461 19.481 43.8461 17.4868C43.6813 15.4926 42.1978 13.8308 40.2198 13.8308Z" fill="white"/>
<path d="M55.5495 37.9272C53.7363 37.9272 52.088 36.7639 51.4286 35.1021L51.099 34.7698H6.09895C5.43961 34.7698 4.78027 34.1051 4.78027 33.4403C4.78027 32.7756 5.43961 32.1109 6.09895 32.1109H51.099L51.4286 31.9447C52.088 30.2829 53.7363 29.1196 55.5495 29.1196C58.022 29.1196 60.0001 31.1138 60.0001 33.6065C60.0001 35.933 58.022 37.9272 55.5495 37.9272ZM55.5495 29.9505C53.5715 29.9505 51.9231 31.6123 51.9231 33.6065C51.9231 35.6007 53.5715 37.2625 55.5495 37.2625C57.5275 37.2625 59.1759 35.6007 59.1759 33.6065C59.1759 31.4462 57.5275 29.9505 55.5495 29.9505Z" fill="white"/>
<path d="M13.3517 29.9503C10.8791 29.9503 8.90112 27.9562 8.90112 25.4634C8.90112 22.9707 10.8791 20.9766 13.3517 20.9766C15.1649 20.9766 16.8132 22.1398 17.4726 23.8016L17.8022 23.9678H47.1429C47.967 23.9678 48.4616 24.4664 48.4616 25.2973C48.4616 25.962 47.8022 26.6267 47.1429 26.6267H17.8022L17.4726 26.7929C16.978 28.7871 15.1649 29.9503 13.3517 29.9503ZM13.3517 21.9736C11.3737 21.9736 9.89013 23.4693 9.89013 25.4634C9.89013 27.4576 11.5385 29.1194 13.5165 29.1194C15.4945 29.1194 17.1429 27.4576 17.1429 25.4634C17.1429 23.4693 15.3297 21.9736 13.3517 21.9736Z" fill="white"/>
<path d="M4.45055 46.0699C1.97802 46.0699 0 44.0758 0 41.5831C0 39.0904 1.97802 37.0962 4.45055 37.0962C6.26374 37.0962 7.91209 38.2595 8.57143 39.9213L8.9011 40.0874H55.2198C55.8791 40.0874 56.5385 40.7522 56.5385 41.4169C56.5385 42.0816 56.044 42.9125 55.2198 42.9125H8.9011L8.57143 43.0787C7.91209 44.9067 6.26374 46.0699 4.45055 46.0699ZM4.45055 37.9271C2.47253 37.9271 0.824176 39.5889 0.824176 41.5831C0.824176 43.5772 2.47253 45.239 4.45055 45.239C6.42857 45.239 8.07692 43.5772 8.07692 41.5831C8.07692 39.5889 6.42857 37.9271 4.45055 37.9271Z" fill="white"/>
<path d="M12.3627 62.0233C9.89013 62.0233 7.91211 60.0292 7.91211 57.5364C7.91211 55.0437 9.89013 53.0496 12.3627 53.0496C14.1758 53.0496 15.8242 54.2128 16.4835 55.8746L16.8132 56.0408H47.1429C47.9671 56.0408 48.4616 56.5394 48.4616 57.3703C48.4616 58.035 47.8022 58.6997 47.1429 58.6997H16.8132L16.4835 59.1983C15.989 60.8601 14.1758 62.0233 12.3627 62.0233ZM12.3627 54.0466C10.3846 54.0466 8.73629 55.7085 8.73629 57.7026C8.73629 59.6968 10.3846 61.3586 12.3627 61.3586C14.3407 61.3586 15.989 59.6968 15.989 57.7026C15.989 55.7085 14.5055 54.0466 12.3627 54.0466Z" fill="white"/>
<path d="M55.5495 54.0466C53.7363 54.0466 52.088 52.8833 51.4286 51.2215L51.099 50.8892H6.09895C5.43961 50.8892 4.78027 50.2244 4.78027 49.5597C4.78027 48.895 5.43961 48.2303 6.09895 48.2303H51.099L51.4286 48.0641C52.088 46.4023 53.7363 45.239 55.5495 45.239C58.022 45.239 60.0001 47.2332 60.0001 49.7259C60.0001 52.2186 58.022 54.0466 55.5495 54.0466ZM55.5495 45.9037C53.5715 45.9037 51.9231 47.5655 51.9231 49.5597C51.9231 51.5539 53.5715 53.2157 55.5495 53.2157C57.5275 53.2157 59.1759 51.5539 59.1759 49.5597C59.1759 47.5655 57.5275 45.9037 55.5495 45.9037Z" fill="white"/>
<path d="M39.3956 70C37.5824 70 35.934 68.8368 35.2747 67.175L34.945 67.0088H21.4285C20.7692 67.0088 20.1099 66.3441 20.1099 65.6793C20.1099 65.0146 20.7692 64.3499 21.4285 64.3499H34.7802L35.1099 64.1837C35.7692 62.5219 37.4176 61.3586 39.2307 61.3586C41.7033 61.3586 43.6813 63.3528 43.6813 65.8455C43.6813 68.3382 41.8681 70 39.3956 70ZM39.3956 62.0234C37.4176 62.0234 35.7692 63.6852 35.7692 65.6793C35.7692 67.6735 37.4176 69.3353 39.3956 69.3353C41.3736 69.3353 43.0219 67.6735 43.0219 65.6793C43.0219 63.6852 41.3736 62.0234 39.3956 62.0234Z" fill="white"/>
<path d="M32 54H14.5L18 57.5L34.5 57L32 54Z" fill="white"/>
</svg>
