<?xml version="1.0" encoding="UTF-8"?>
<svg width="146px" height="146px" viewBox="0 0 146 146" version="1.1" xmlns="http://www.w3.org/2000/svg" xmlns:xlink="http://www.w3.org/1999/xlink">
    <!-- Generator: Sketch 47.1 (45422) - http://www.bohemiancoding.com/sketch -->
    <title>icon_path</title>
    <desc>Created with Sketch.</desc>
    <defs>
        <linearGradient x1="50%" y1="-33.2449151%" x2="50%" y2="113.279988%" id="linearGradient-1">
            <stop stop-color="#D0F04A" offset="0%"></stop>
            <stop stop-color="#2FD68D" offset="95.7124115%"></stop>
            <stop stop-color="#28D590" offset="100%"></stop>
        </linearGradient>
    </defs>
    <g id="1.0" stroke="none" stroke-width="1" fill="none" fill-rule="evenodd">
        <g id="icon_path" fill="url(#linearGradient-1)">
            <g id="icon_path-copy">
                <polygon id="Fill-1" points="48 37 53 37 53 32 48 32"></polygon>
                <polygon id="Fill-2" points="48 115 53 115 53 110 48 110"></polygon>
                <polygon id="Fill-3" points="94 115 99 115 99 110 94 110"></polygon>
                <polygon id="Fill-4" points="27 76 32 76 32 71 27 71"></polygon>
                <polygon id="Fill-5" points="94 37 99 37 99 32 94 32"></polygon>
                <polygon id="Fill-6" points="114 76 119 76 119 71 114 71"></polygon>
                <path d="M130.03125,95.8125 C126.917344,95.8125 124.168437,97.3842812 122.521375,99.77275 L111.265687,94.1449062 C111.575937,93.230125 111.78125,92.2674375 111.78125,91.25 C111.78125,87.0114375 108.86125,83.4686563 104.9375,82.4489375 L104.9375,63.5510625 C108.86125,62.5313437 111.78125,58.9885625 111.78125,54.75 C111.78125,49.7175625 107.688688,45.625 102.65625,45.625 C100.297438,45.625 98.16675,46.546625 96.5470625,48.0203125 L82.0497187,41.8084687 C82.07025,41.5575312 82.125,41.318 82.125,41.0625 C82.125,36.8239375 79.205,33.2811562 75.28125,32.2614375 L75.28125,17.9260625 C78.3175938,17.13675 80.7151875,14.8349687 81.6573438,11.8647812 L98.139375,15.5284687 C98.1325312,15.67675 98.09375,15.8181875 98.09375,15.96875 C98.09375,21.0011875 102.186312,25.09375 107.21875,25.09375 C108.836156,25.09375 110.337219,24.6352187 111.655781,23.8915312 L122.286406,36.2946875 C121.428656,37.68625 120.90625,39.3082187 120.90625,41.0625 C120.90625,46.0949375 124.998812,50.1875 130.03125,50.1875 C130.197781,50.1875 130.355187,50.1464375 130.519437,50.1395937 L134.073625,64.3609062 C130.416781,65.5494375 127.75,68.9530625 127.75,73 C127.75,77.0469375 130.416781,80.4505625 134.073625,81.6390938 L130.519437,95.8604063 C130.355187,95.8535625 130.197781,95.8125 130.03125,95.8125 L130.03125,95.8125 Z M130.03125,109.5 C127.515031,109.5 125.46875,107.453719 125.46875,104.9375 C125.46875,102.421281 127.515031,100.375 130.03125,100.375 C132.547469,100.375 134.59375,102.421281 134.59375,104.9375 C134.59375,107.453719 132.547469,109.5 130.03125,109.5 L130.03125,109.5 Z M107.21875,134.59375 C104.702531,134.59375 102.65625,132.547469 102.65625,130.03125 C102.65625,127.515031 104.702531,125.46875 107.21875,125.46875 C109.734969,125.46875 111.78125,127.515031 111.78125,130.03125 C111.78125,132.547469 109.734969,134.59375 107.21875,134.59375 L107.21875,134.59375 Z M81.6573437,134.135219 C80.7151875,131.165031 78.3175938,128.86325 75.28125,128.073937 L75.28125,113.738563 C78.7601562,112.832906 81.4200937,109.944844 81.9835625,106.34275 L96.5744375,98.0025 C98.194125,99.4625 100.313406,100.375 102.65625,100.375 C105.008219,100.375 107.134344,99.4579375 108.754031,97.9910937 L120.990656,104.109406 C120.963281,104.385437 120.90625,104.652344 120.90625,104.9375 C120.90625,106.691781 121.428656,108.31375 122.286406,109.705312 L111.655781,122.108469 C110.337219,121.364781 108.836156,120.90625 107.21875,120.90625 C102.186312,120.90625 98.09375,124.998812 98.09375,130.03125 C98.09375,130.181813 98.1325312,130.32325 98.139375,130.471531 L81.6573437,134.135219 Z M73,141.4375 C70.4837813,141.4375 68.4375,139.391219 68.4375,136.875 C68.4375,134.358781 70.4837813,132.3125 73,132.3125 C75.5162187,132.3125 77.5625,134.358781 77.5625,136.875 C77.5625,139.391219 75.5162187,141.4375 73,141.4375 L73,141.4375 Z M38.78125,120.90625 C37.1638437,120.90625 35.6627813,121.364781 34.3442187,122.108469 L23.7135937,109.705312 C24.5713437,108.31375 25.09375,106.691781 25.09375,104.9375 C25.09375,104.652344 25.0367187,104.385437 25.0093437,104.109406 L37.2459687,97.9910937 C38.8656563,99.4579375 40.9917813,100.375 43.34375,100.375 C45.6865938,100.375 47.805875,99.4625 49.4255625,98.0025 L64.0187188,106.34275 C64.5799063,109.944844 67.2398438,112.832906 70.71875,113.738563 L70.71875,128.073937 C67.6824063,128.86325 65.2848125,131.165031 64.3426563,134.135219 L47.860625,130.471531 C47.8674688,130.32325 47.90625,130.181813 47.90625,130.03125 C47.90625,124.998812 43.8136875,120.90625 38.78125,120.90625 L38.78125,120.90625 Z M38.78125,134.59375 C36.2650312,134.59375 34.21875,132.547469 34.21875,130.03125 C34.21875,127.515031 36.2650312,125.46875 38.78125,125.46875 C41.2974688,125.46875 43.34375,127.515031 43.34375,130.03125 C43.34375,132.547469 41.2974688,134.59375 38.78125,134.59375 L38.78125,134.59375 Z M11.40625,104.9375 C11.40625,102.421281 13.4525312,100.375 15.96875,100.375 C18.4849688,100.375 20.53125,102.421281 20.53125,104.9375 C20.53125,107.453719 18.4849688,109.5 15.96875,109.5 C13.4525312,109.5 11.40625,107.453719 11.40625,104.9375 L11.40625,104.9375 Z M11.926375,81.6390938 C15.5832187,80.4505625 18.25,77.0469375 18.25,73 C18.25,68.9530625 15.5832187,65.5494375 11.926375,64.3609063 L15.4805625,50.1395938 C15.6448125,50.1464375 15.8022188,50.1875 15.96875,50.1875 C18.3207188,50.1875 20.4468438,49.2704375 22.0665313,47.8035938 L34.3031563,53.9219063 C34.2757812,54.1979375 34.21875,54.4648438 34.21875,54.75 C34.21875,58.9885625 37.13875,62.5313438 41.0625,63.5510625 L41.0625,82.4489375 C37.13875,83.4686563 34.21875,87.0114375 34.21875,91.25 C34.21875,92.2674375 34.4240625,93.230125 34.7343125,94.1449063 L23.478625,99.77275 C21.8315625,97.3842813 19.0826563,95.8125 15.96875,95.8125 C15.8022188,95.8125 15.6448125,95.8535625 15.4805625,95.8604063 L11.926375,81.6390938 Z M4.5625,73 C4.5625,70.4837813 6.60878125,68.4375 9.125,68.4375 C11.6412188,68.4375 13.6875,70.4837813 13.6875,73 C13.6875,75.5162188 11.6412188,77.5625 9.125,77.5625 C6.60878125,77.5625 4.5625,75.5162188 4.5625,73 L4.5625,73 Z M15.96875,36.5 C18.4849688,36.5 20.53125,38.5462812 20.53125,41.0625 C20.53125,43.5787187 18.4849688,45.625 15.96875,45.625 C13.4525312,45.625 11.40625,43.5787187 11.40625,41.0625 C11.40625,38.5462812 13.4525312,36.5 15.96875,36.5 L15.96875,36.5 Z M38.78125,11.40625 C41.2974688,11.40625 43.34375,13.4525312 43.34375,15.96875 C43.34375,18.4849688 41.2974688,20.53125 38.78125,20.53125 C36.2650312,20.53125 34.21875,18.4849688 34.21875,15.96875 C34.21875,13.4525312 36.2650312,11.40625 38.78125,11.40625 L38.78125,11.40625 Z M68.4375,73 C68.4375,70.4837813 70.4837813,68.4375 73,68.4375 C75.5162187,68.4375 77.5625,70.4837813 77.5625,73 C77.5625,75.5162188 75.5162187,77.5625 73,77.5625 C70.4837813,77.5625 68.4375,75.5162188 68.4375,73 L68.4375,73 Z M43.34375,86.6875 C45.8599688,86.6875 47.90625,88.7337812 47.90625,91.25 C47.90625,93.7662188 45.8599688,95.8125 43.34375,95.8125 C40.8275312,95.8125 38.78125,93.7662188 38.78125,91.25 C38.78125,88.7337812 40.8275312,86.6875 43.34375,86.6875 L43.34375,86.6875 Z M43.34375,59.3125 C40.8275312,59.3125 38.78125,57.2662187 38.78125,54.75 C38.78125,52.2337812 40.8275312,50.1875 43.34375,50.1875 C45.8599688,50.1875 47.90625,52.2337812 47.90625,54.75 C47.90625,57.2662187 45.8599688,59.3125 43.34375,59.3125 L43.34375,59.3125 Z M73,109.5 C70.4837813,109.5 68.4375,107.453719 68.4375,104.9375 C68.4375,102.421281 70.4837813,100.375 73,100.375 C75.5162187,100.375 77.5625,102.421281 77.5625,104.9375 C77.5625,107.453719 75.5162187,109.5 73,109.5 L73,109.5 Z M100.375,63.5510625 L100.375,82.4489375 C96.45125,83.4686562 93.53125,87.0114375 93.53125,91.25 C93.53125,92.2834062 93.741125,93.2597812 94.0582188,94.18825 L81.41325,101.412969 C80.0330938,98.1279687 76.7823125,95.8125 73,95.8125 C69.2176875,95.8125 65.9669063,98.1279687 64.58675,101.412969 L51.9417813,94.18825 C52.258875,93.2597812 52.46875,92.2834062 52.46875,91.25 C52.46875,87.0114375 49.54875,83.4686562 45.625,82.4489375 L45.625,63.5510625 C47.0439375,63.1815 48.316875,62.4857188 49.3799375,61.5412813 L63.9799375,71.9665938 C63.938875,72.3110625 63.875,72.6464063 63.875,73 C63.875,78.0324375 67.9675625,82.125 73,82.125 C78.0324375,82.125 82.125,78.0324375 82.125,73 C82.125,72.6464063 82.061125,72.3110625 82.0200625,71.9665938 L96.6200625,61.5412813 C97.683125,62.4857188 98.9560625,63.1815 100.375,63.5510625 L100.375,63.5510625 Z M102.65625,59.3125 C100.140031,59.3125 98.09375,57.2662187 98.09375,54.75 C98.09375,52.2337812 100.140031,50.1875 102.65625,50.1875 C105.172469,50.1875 107.21875,52.2337812 107.21875,54.75 C107.21875,57.2662187 105.172469,59.3125 102.65625,59.3125 L102.65625,59.3125 Z M102.65625,86.6875 C105.172469,86.6875 107.21875,88.7337812 107.21875,91.25 C107.21875,93.7662188 105.172469,95.8125 102.65625,95.8125 C100.140031,95.8125 98.09375,93.7662188 98.09375,91.25 C98.09375,88.7337812 100.140031,86.6875 102.65625,86.6875 L102.65625,86.6875 Z M64.3426562,11.8647812 C65.2848125,14.8349687 67.6824062,17.13675 70.71875,17.9260625 L70.71875,32.2614375 C66.795,33.2811562 63.875,36.8239375 63.875,41.0625 C63.875,46.0949375 67.9675625,50.1875 73,50.1875 C76.1526875,50.1875 78.9380937,48.5769375 80.5760312,46.1405625 L94.0308437,51.9052813 C93.732,52.806375 93.53125,53.7508125 93.53125,54.75 C93.53125,55.8062188 93.7479687,56.803125 94.07875,57.7475625 L80.3045625,67.5865937 C78.63925,65.3486875 75.9975625,63.875 73,63.875 C70.0024375,63.875 67.36075,65.3486875 65.6954375,67.5865937 L51.92125,57.7475625 C52.2520312,56.803125 52.46875,55.8062188 52.46875,54.75 C52.46875,49.7175625 48.3761875,45.625 43.34375,45.625 C40.2298437,45.625 37.4809375,47.1967813 35.833875,49.58525 L24.5781875,43.9574062 C24.8884375,43.042625 25.09375,42.0799375 25.09375,41.0625 C25.09375,39.3082187 24.5713437,37.68625 23.7135937,36.2946875 L34.3442187,23.8915312 C35.6627812,24.6352187 37.1638437,25.09375 38.78125,25.09375 C43.8136875,25.09375 47.90625,21.0011875 47.90625,15.96875 C47.90625,15.8181875 47.8674687,15.67675 47.860625,15.5284687 L64.3426562,11.8647812 Z M73,36.5 C75.5162187,36.5 77.5625,38.5462812 77.5625,41.0625 C77.5625,43.5787187 75.5162187,45.625 73,45.625 C70.4837813,45.625 68.4375,43.5787187 68.4375,41.0625 C68.4375,38.5462812 70.4837813,36.5 73,36.5 L73,36.5 Z M73,4.5625 C75.5162187,4.5625 77.5625,6.60878125 77.5625,9.125 C77.5625,11.6412188 75.5162187,13.6875 73,13.6875 C70.4837813,13.6875 68.4375,11.6412188 68.4375,9.125 C68.4375,6.60878125 70.4837813,4.5625 73,4.5625 L73,4.5625 Z M107.21875,11.40625 C109.734969,11.40625 111.78125,13.4525312 111.78125,15.96875 C111.78125,18.4849688 109.734969,20.53125 107.21875,20.53125 C104.702531,20.53125 102.65625,18.4849688 102.65625,15.96875 C102.65625,13.4525312 104.702531,11.40625 107.21875,11.40625 L107.21875,11.40625 Z M134.59375,41.0625 C134.59375,43.5787187 132.547469,45.625 130.03125,45.625 C127.515031,45.625 125.46875,43.5787187 125.46875,41.0625 C125.46875,38.5462812 127.515031,36.5 130.03125,36.5 C132.547469,36.5 134.59375,38.5462812 134.59375,41.0625 L134.59375,41.0625 Z M141.4375,73 C141.4375,75.5162188 139.391219,77.5625 136.875,77.5625 C134.358781,77.5625 132.3125,75.5162188 132.3125,73 C132.3125,70.4837813 134.358781,68.4375 136.875,68.4375 C139.391219,68.4375 141.4375,70.4837813 141.4375,73 L141.4375,73 Z M146,73 C146,68.5949063 142.861,64.9084063 138.702281,64.0597813 L134.878906,48.764 C137.44075,47.1465938 139.15625,44.3087188 139.15625,41.0625 C139.15625,36.0300625 135.063688,31.9375 130.03125,31.9375 C128.413844,31.9375 126.912781,32.3960313 125.594219,33.1397188 L114.963594,20.7365625 C115.821344,19.345 116.34375,17.7230312 116.34375,15.96875 C116.34375,10.9363125 112.251188,6.84375 107.21875,6.84375 C103.958844,6.84375 101.111844,8.5775 99.499,11.1575937 L81.9288125,7.25209375 C81.0619375,3.1161875 77.389125,0 73,0 C68.610875,0 64.9380625,3.1161875 64.0711875,7.25209375 L46.501,11.1575937 C44.8881563,8.5775 42.0411563,6.84375 38.78125,6.84375 C33.7488125,6.84375 29.65625,10.9363125 29.65625,15.96875 C29.65625,17.7230312 30.1786562,19.345 31.0364062,20.7365625 L20.4057813,33.1397188 C19.0872187,32.3960313 17.5861562,31.9375 15.96875,31.9375 C10.9363125,31.9375 6.84375,36.0300625 6.84375,41.0625 C6.84375,44.3087188 8.55925,47.1465938 11.1210938,48.764 L7.29771875,64.0597813 C3.139,64.9084063 0,68.5949063 0,73 C0,77.4050937 3.139,81.0915937 7.29771875,81.9402187 L11.1210938,97.236 C8.55925,98.8534062 6.84375,101.691281 6.84375,104.9375 C6.84375,109.969938 10.9363125,114.0625 15.96875,114.0625 C17.5861562,114.0625 19.0872187,113.603969 20.4057813,112.860281 L31.0364062,125.263437 C30.1786562,126.655 29.65625,128.276969 29.65625,130.03125 C29.65625,135.063688 33.7488125,139.15625 38.78125,139.15625 C42.0411563,139.15625 44.8881563,137.4225 46.501,134.842406 L64.0711875,138.747906 C64.9380625,142.883813 68.610875,146 73,146 C77.389125,146 81.0619375,142.883813 81.9288125,138.747906 L99.499,134.842406 C101.111844,137.4225 103.958844,139.15625 107.21875,139.15625 C112.251188,139.15625 116.34375,135.063688 116.34375,130.03125 C116.34375,128.276969 115.821344,126.655 114.963594,125.263437 L125.594219,112.860281 C126.912781,113.603969 128.413844,114.0625 130.03125,114.0625 C135.063688,114.0625 139.15625,109.969938 139.15625,104.9375 C139.15625,101.691281 137.44075,98.8534062 134.878906,97.236 L138.702281,81.9402187 C142.861,81.0915937 146,77.4050937 146,73 L146,73 Z" id="Fill-7"></path>
            </g>
        </g>
    </g>
</svg>