<?xml version="1.0" encoding="UTF-8"?>
<svg width="146px" height="146px" viewBox="0 0 146 146" version="1.1" xmlns="http://www.w3.org/2000/svg" xmlns:xlink="http://www.w3.org/1999/xlink">
    <!-- Generator: Sketch 47.1 (45422) - http://www.bohemiancoding.com/sketch -->
    <title>icon_performance</title>
    <desc>Created with Sketch.</desc>
    <defs>
        <linearGradient x1="50%" y1="-33.2449151%" x2="50%" y2="113.279988%" id="linearGradient-1">
            <stop stop-color="#D0F04A" offset="0%"></stop>
            <stop stop-color="#2FD68D" offset="95.7124115%"></stop>
            <stop stop-color="#28D590" offset="100%"></stop>
        </linearGradient>
    </defs>
    <g id="1.0" stroke="none" stroke-width="1" fill="none" fill-rule="evenodd">
        <g id="icon_performance" fill="url(#linearGradient-1)">
            <g id="icon_performance-copy" transform="translate(7.000000, 0.000000)">
                <polygon id="Fill-1" points="64 31 68 31 68 27 64 27"></polygon>
                <polygon id="Fill-2" points="12 84 16 84 16 80 12 80"></polygon>
                <polygon id="Fill-3" points="117 84 121 84 121 80 117 80"></polygon>
                <polygon id="Fill-4" points="64 136 68 136 68 132 64 132"></polygon>
                <path d="M116.861651,21.4759156 L127.361992,31.9377281 L123.730605,35.5557906 L113.230264,25.0939781 L116.861651,21.4759156 Z M66.4893207,141.437728 C33.6648786,141.437728 6.95838501,114.829228 6.95838501,82.1252281 C6.95838501,49.4212281 33.6648786,22.8127281 66.4893207,22.8127281 C99.3137627,22.8127281 126.020256,49.4212281 126.020256,82.1252281 C126.020256,114.829228 99.3137627,141.437728 66.4893207,141.437728 L66.4893207,141.437728 Z M66.4893207,4.56272812 C70.276404,4.56272812 73.3582748,7.63329062 73.3582748,11.4064781 C73.3582748,14.3766656 71.4395469,16.8837594 68.778972,17.8281969 L68.778972,11.4064781 L64.1996693,11.4064781 L64.1996693,17.8281969 C61.5390944,16.8837594 59.6203665,14.3766656 59.6203665,11.4064781 C59.6203665,7.63329062 62.7022373,4.56272812 66.4893207,4.56272812 L66.4893207,4.56272812 Z M9.24803638,35.5557906 L5.6166493,31.9377281 L16.1169905,21.4759156 L19.7483776,25.0939781 L9.24803638,35.5557906 Z M122.111821,40.3943219 C122.558303,40.8391656 123.144454,41.0627281 123.730605,41.0627281 C124.316756,41.0627281 124.902906,40.8391656 125.349388,40.3943219 L132.218343,33.5505719 C133.113596,32.6586031 133.113596,31.2168531 132.218343,30.3248844 L118.480434,16.6373844 C117.585181,15.7454156 116.138121,15.7454156 115.242867,16.6373844 L108.373913,23.4811344 C107.47866,24.3731031 107.47866,25.8148531 108.373913,26.7068219 L113.626373,31.9400094 L110.146103,35.4075094 C100.676105,26.6155719 88.5432427,20.6501031 75.0984098,18.8433531 C76.8431242,16.8404156 77.9375775,14.2603219 77.9375775,11.4064781 C77.9375775,5.11707187 72.8018895,0.000228125 66.4893207,0.000228125 C60.1767518,0.000228125 55.0410638,5.11707187 55.0410638,11.4064781 C55.0410638,14.2603219 56.1355172,16.8404156 57.8802315,18.8433531 C44.4353986,20.6501031 32.3048257,26.6155719 22.8348276,35.4052281 L19.3545575,31.9377281 L24.6047281,26.7068219 C25.4999818,25.8148531 25.4999818,24.3731031 24.6047281,23.4811344 L17.735774,16.6373844 C16.8405203,15.7454156 15.3934607,15.7454156 14.498207,16.6373844 L0.760298746,30.3248844 C-0.13495494,31.2168531 -0.13495494,32.6586031 0.760298746,33.5505719 L7.62925286,40.3943219 C8.07573488,40.8391656 8.66188563,41.0627281 9.24803638,41.0627281 C9.83418713,41.0627281 10.4203379,40.8391656 10.8668199,40.3943219 L16.1169905,35.1634156 L19.5972606,38.6331969 C8.92519554,50.0440094 2.37908227,65.3352281 2.37908227,82.1252281 C2.37908227,117.345447 31.1393931,146.000228 66.4893207,146.000228 C101.839248,146.000228 130.599559,117.345447 130.599559,82.1252281 C130.599559,65.3352281 124.053446,50.0462906 113.38367,38.6331969 L116.86394,35.1656969 L122.111821,40.3943219 Z" id="Fill-5"></path>
                <path d="M66.4893207,77.5625 C69.0148061,77.5625 71.0686234,79.6087813 71.0686234,82.125 C71.0686234,84.6412188 69.0148061,86.6875 66.4893207,86.6875 C63.9638352,86.6875 61.9100179,84.6412188 61.9100179,82.125 C61.9100179,79.6087813 63.9638352,77.5625 66.4893207,77.5625 M66.4893207,36.5 L66.4893207,41.0625 C89.2141105,41.0625 107.703045,59.4835938 107.703045,82.125 C107.703045,104.766406 89.2141105,123.1875 66.4893207,123.1875 C56.2499997,123.1875 46.6082778,119.450813 39.0455593,112.69375 L45.5206934,106.242375 C51.3501458,111.283938 58.6999267,114.0625 66.4893207,114.0625 C84.1654292,114.0625 98.5444399,99.73625 98.5444399,82.125 C98.5444399,64.51375 84.1654292,50.1875 66.4893207,50.1875 L66.4893207,54.75 C81.6399438,54.75 93.9651371,67.0299688 93.9651371,82.125 C93.9651371,97.2200313 81.6399438,109.5 66.4893207,109.5 C59.9226005,109.5 53.7153557,107.202781 48.7582604,103.014406 L61.8665145,89.9565313 C63.2288571,90.7595313 64.7949786,91.25 66.4893207,91.25 C71.5402916,91.25 75.6479261,87.1574375 75.6479261,82.125 C75.6479261,77.0925625 71.5402916,73 66.4893207,73 C61.4383497,73 57.3307152,77.0925625 57.3307152,82.125 C57.3307152,83.8108438 57.8229902,85.3735 58.6289475,86.7308438 L32.8154179,112.449656 L34.4387808,114.067063 L34.1136503,114.393281 C42.7616635,123.005 54.2602927,127.75 66.4893207,127.75 C91.739596,127.75 112.282348,107.282625 112.282348,82.125 C112.282348,56.967375 91.739596,36.5 66.4893207,36.5" id="Fill-8"></path>
                <polygon id="Fill-10" points="20.6962932 84.40625 25.275596 84.40625 25.275596 79.84375 20.6962932 79.84375"></polygon>
                <polygon id="Fill-12" points="29.8548987 84.40625 34.4342015 84.40625 34.4342015 79.84375 29.8548987 79.84375"></polygon>
                <polygon id="Fill-13" points="39.0135042 84.40625 43.5928069 84.40625 43.5928069 79.84375 39.0135042 79.84375"></polygon>
                <polygon id="Fill-14" points="48.1721097 84.40625 52.7514124 84.40625 52.7514124 79.84375 48.1721097 79.84375"></polygon>
            </g>
        </g>
    </g>
</svg>