<?xml version="1.0" encoding="UTF-8"?>
<svg width="146px" height="146px" viewBox="0 0 146 146" version="1.1" xmlns="http://www.w3.org/2000/svg" xmlns:xlink="http://www.w3.org/1999/xlink">
    <!-- Generator: Sketch 47.1 (45422) - http://www.bohemiancoding.com/sketch -->
    <title>icon_route</title>
    <desc>Created with Sketch.</desc>
    <defs>
        <linearGradient x1="50%" y1="-33.2449151%" x2="50%" y2="113.279988%" id="linearGradient-1">
            <stop stop-color="#D0F04A" offset="0%"></stop>
            <stop stop-color="#2FD68D" offset="95.7124115%"></stop>
            <stop stop-color="#28D590" offset="100%"></stop>
        </linearGradient>
    </defs>
    <g id="1.0" stroke="none" stroke-width="1" fill="none" fill-rule="evenodd">
        <g id="icon_route">
            <g id="icon_route-copy" transform="translate(4.000000, 4.000000)">
                <polygon id="Fill-1" fill="#93E664" points="52 54 56 54 56 50 52 50"></polygon>
                <polygon id="Fill-2" fill="#93E664" points="61 54 65 54 65 50 61 50"></polygon>
                <polygon id="Fill-3" fill="#93E664" points="69 54 73 54 73 50 69 50"></polygon>
                <polygon id="Fill-4" fill="#4FDB80" points="65 88 69 88 69 84 65 84"></polygon>
                <polygon id="Fill-5" fill="#4FDB80" points="73 88 77 88 77 84 73 84"></polygon>
                <polygon id="Fill-6" fill="#4FDB80" points="82 88 86 88 86 84 82 84"></polygon>
                <polygon id="Fill-7" fill="#93E664" points="77 54 107 54 107 50 77 50"></polygon>
                <polygon id="Fill-8" fill="#4FDB80" points="30 88 60 88 60 84 30 84"></polygon>
                <path d="M32.3440364,113 C32.6221905,113 32.9025008,112.94643 33.1698737,112.837146 C33.9741486,112.50501 34.5002695,111.722883 34.5002695,110.857186 L34.5002695,93.7146778 L30.1878032,93.7146778 L30.1878032,105.684434 L5.20568589,80.8577963 L30.1878032,56.0311581 L30.1878032,68.0009148 C30.1878032,69.1837479 31.1537957,70.1437284 32.3440364,70.1437284 L103.49973,70.1437284 L103.49973,85.1434235 C103.49973,86.0091201 104.025851,86.7912471 104.830126,87.1233832 C105.634401,87.4533765 106.561582,87.2712373 107.18042,86.6583927 L137.367685,56.6590025 C138.210772,55.8211624 138.210772,54.4669042 137.367685,53.6290641 L107.18042,23.629674 C106.561582,23.0146865 105.634401,22.8304045 104.830126,23.1646834 C104.025851,23.4968196 103.49973,24.2789465 103.49973,25.1446432 L103.49973,42.2871518 L107.812197,42.2871518 L107.812197,30.3173952 L132.794314,55.1440333 L107.812197,79.9706715 L107.812197,68.0009148 C107.812197,66.8180817 106.846204,65.8581012 105.655964,65.8581012 L34.5002695,65.8581012 L34.5002695,50.8584062 C34.5002695,49.9927095 33.9741486,49.2105825 33.1698737,48.8784464 C32.3612862,48.5463103 31.4362622,48.7305923 30.8195795,49.343437 L0.632315373,79.3428271 C-0.210771791,80.1806672 -0.210771791,81.5349254 0.632315373,82.3727655 L30.8195795,112.372156 C31.2314201,112.781433 31.7834158,113 32.3440364,113" id="Fill-9" fill="url(#linearGradient-1)"></path>
                <path d="M68.88,133.6875 C56.5788,133.6875 44.6556,130.248281 34.32,123.729937 L34.32,120.75 L30,120.75 L30,125.053875 C30,125.084062 30,125.116406 30.00216,125.14875 C30.04104,126.140625 30.74952,126.953531 31.67832,127.164844 C42.78288,134.25675 55.62624,138 68.88,138 C106.9932,138 138,107.047031 138,69 L133.68,69 C133.68,104.668687 104.61072,133.6875 68.88,133.6875" id="Fill-12" fill="url(#linearGradient-1)"></path>
                <path d="M69.12,4.3125 C81.4212,4.3125 93.3444,7.75171875 103.68,14.2700625 L103.68,17.25 L108,17.25 L108,12.946125 C108,12.9159375 108,12.8835937 107.99784,12.85125 C107.95896,11.859375 107.25048,11.0464687 106.32168,10.8351562 C95.21712,3.74325 82.37376,0 69.12,0 C31.0068,0 0,30.9529687 0,69 L4.32,69 C4.32,33.3313125 33.38928,4.3125 69.12,4.3125" id="Fill-14" fill="url(#linearGradient-1)"></path>
            </g>
        </g>
    </g>
</svg>