<svg width="67" height="38" viewBox="0 0 67 38" fill="none" xmlns="http://www.w3.org/2000/svg">
<ellipse cx="15.0938" cy="15.5" rx="14.8437" ry="14.8438" transform="rotate(-90 15.0938 15.5)" fill="#00C1C0" fill-opacity="0.5"/>
<path d="M54.8472 12.5313C51.8732 12.5825 48.8437 13.945 46.1051 16.6893L38.8438 23.9304C35.9639 21.1276 33.1171 18.2716 30.2237 15.4926C25.9073 11.6441 19.4339 11.2826 14.5853 16.1417C9.75557 20.9819 9.69443 28.7764 14.5652 33.5852C16.9752 35.9648 19.8667 37.2467 22.8407 37.1957C25.8147 37.1444 28.8442 35.7616 31.5828 33.0173L38.8438 25.7762C41.7236 28.579 44.5704 31.435 47.4638 34.214C51.7802 38.0625 58.2536 38.424 63.1022 33.5649C67.9319 28.7247 67.9931 20.9302 63.1223 16.1214C60.9116 13.7495 57.5447 12.5301 54.8472 12.5313ZM22.6374 13.7888C25.0573 13.7635 27.4164 14.7293 29.3512 16.4459C32.2107 19.2522 35.0709 22.0577 37.9309 24.8634C35.4973 27.2659 33.094 29.7299 30.6493 32.1045C28.0942 34.665 25.4111 35.853 22.82 35.8975C20.229 35.9416 17.688 34.8347 15.4775 32.6522C11.107 28.3371 11.1549 21.4067 15.4976 17.0544C17.6451 14.9716 20.2697 13.8508 22.6374 13.7888ZM54.8675 13.8291C57.4585 13.7849 59.9995 14.8716 62.21 17.054C66.5805 21.3692 66.5326 28.2996 62.1899 32.6519C57.7713 37.0799 52.2132 36.7 48.3364 33.2604C45.4837 30.4542 42.6303 27.6487 39.777 24.8429C42.2039 22.4471 44.6003 19.9898 47.0383 17.6221C49.387 15.3967 52.242 13.9186 54.8675 13.8291Z" fill="white"/>
<path d="M23.4441 36.4848C21.6488 36.6783 19.8338 36.4148 18.1677 35.7188C16.5016 35.0227 15.0386 33.9167 13.9146 32.5035C12.7906 31.0904 12.0421 29.416 11.7388 27.636C11.4355 25.856 11.5871 24.0283 12.1797 22.3226L14.5566 23.1483C14.1033 24.4532 13.9873 25.8516 14.2193 27.2133C14.4514 28.5751 15.024 29.8561 15.8839 30.9372C16.7438 32.0183 17.8631 32.8645 19.1377 33.397C20.4123 33.9295 21.8009 34.1311 23.1744 33.983L23.4441 36.4848Z" fill="white"/>
</svg>
