<svg width="55" height="49" viewBox="0 0 55 49" fill="none" xmlns="http://www.w3.org/2000/svg">
<path d="M24.2158 0.0626516C21.1014 0.0626517 18.0175 0.676078 15.1402 1.8679C12.2628 3.05973 9.64844 4.80662 7.44623 7.00883C5.24401 9.21104 3.49713 11.8254 2.3053 14.7028C1.11347 17.5801 0.500044 20.664 0.500045 23.7784L24.2158 23.7784L24.2158 0.0626516Z" fill="#8D79AB" fill-opacity="0.5"/>
<circle cx="30.6683" cy="24.2933" r="19.2308" stroke="white" stroke-width="0.5"/>
<path d="M33.2981 8.24781C33.3243 7.97292 33.1226 7.72884 32.8477 7.70266C32.5728 7.67648 32.3288 7.87811 32.3026 8.15301L33.2981 8.24781ZM31.1064 25.9873L30.6086 25.9399C30.5897 26.139 30.6912 26.3302 30.8667 26.4261C31.0422 26.5219 31.258 26.504 31.4153 26.3804L31.1064 25.9873ZM43.2731 17.0635C43.4903 16.8929 43.528 16.5785 43.3574 16.3614C43.1868 16.1443 42.8724 16.1065 42.6553 16.2772L43.2731 17.0635ZM32.3026 8.15301L30.6086 25.9399L31.6041 26.0347L33.2981 8.24781L32.3026 8.15301ZM31.4153 26.3804L43.2731 17.0635L42.6553 16.2772L30.7975 25.5941L31.4153 26.3804Z" fill="white"/>
<path d="M12.0098 18.8239C10.9192 22.5961 10.9892 26.6084 12.2104 30.3346C13.4317 34.0608 15.7472 37.3271 18.8534 39.705L20.8065 37.1382C18.2149 35.1542 16.283 32.4291 15.264 29.3201C14.2451 26.2112 14.1867 22.8636 15.0966 19.7163L12.0098 18.8239Z" fill="white"/>
</svg>
